SplineFontDB: 3.0
FontName: Apple410
FullName: Apple410
FamilyName: Apple410
Weight: Regular
Copyright: Copyright (c) 2017, Adam Mayer,,,
UComments: "2017-12-27: Created with FontForge (http://fontforge.org)"
Version: 001.000
ItalicAngle: 0
UnderlinePosition: -100
UnderlineWidth: 50
Ascent: 800
Descent: 200
InvalidEm: 0
LayerCount: 2
Layer: 0 0 "Back" 1
Layer: 1 0 "Fore" 0
XUID: [1021 610 1821552940 15754002]
StyleMap: 0x0000
FSType: 0
OS2Version: 0
OS2_WeightWidthSlopeOnly: 0
OS2_UseTypoMetrics: 1
CreationTime: 1514406749
ModificationTime: 1514409053
OS2TypoAscent: 0
OS2TypoAOffset: 1
OS2TypoDescent: 0
OS2TypoDOffset: 1
OS2TypoLinegap: 90
OS2WinAscent: 0
OS2WinAOffset: 1
OS2WinDescent: 0
OS2WinDOffset: 1
HheadAscent: 0
HheadAOffset: 1
HheadDescent: 0
HheadDOffset: 1
OS2Vendor: 'PfEd'
MarkAttachClasses: 1
DEI: 91125
LangName: 1033
Encoding: ISO8859-1
UnicodeInterp: none
NameList: AGL For New Fonts
DisplaySize: -48
AntiAlias: 1
FitToEm: 0
WinInfo: 29 29 8
BeginPrivate: 0
EndPrivate
BeginChars: 256 95

StartChar: bar
Encoding: 124 124 0
Width: 600
VWidth: 0
Flags: HW
LayerCount: 2
Fore
SplineSet
19.53125 780.46875 m 1
 3.90625 780.46875 l 1
 3.90625 155.46875 l 1
 19.53125 155.46875 l 1
 35.15625 155.46875 l 1
 35.15625 780.46875 l 1
 19.53125 780.46875 l 1
EndSplineSet
Validated: 1
EndChar

StartChar: zero
Encoding: 48 48 1
Width: 600
VWidth: 0
Flags: HW
LayerCount: 2
Fore
SplineSet
127.90625 171.09375 m 1
 35.15625 241.359375 l 1
 35.15625 694.578125 l 1
 127.90625 764.84375 l 1
 323.65625 764.84375 l 1
 416.40625 694.578125 l 1
 416.40625 241.359375 l 1
 323.65625 171.09375 l 1
 127.90625 171.09375 l 1
122.65625 155.46875 m 1
 122.65625 139.84375 l 1
 328.90625 139.84375 l 1
 334.15625 139.84375 l 1
 338.341796875 143.014648438 l 1
 441.466796875 221.139648438 l 1
 447.65625 225.828125 l 1
 447.65625 233.59375 l 1
 447.65625 702.34375 l 1
 447.65625 710.109375 l 1
 441.466796875 714.797851562 l 1
 338.341796875 792.922851562 l 1
 334.15625 796.09375 l 1
 328.90625 796.09375 l 1
 122.65625 796.09375 l 1
 117.40625 796.09375 l 1
 113.220703125 792.922851562 l 1
 10.095703125 714.797851562 l 1
 3.90625 710.109375 l 1
 3.90625 702.34375 l 1
 3.90625 233.59375 l 1
 3.90625 225.828125 l 1
 10.095703125 221.139648438 l 1
 113.220703125 143.014648438 l 1
 122.65625 155.46875 l 1
EndSplineSet
Validated: 9
EndChar

StartChar: semicolon
Encoding: 59 59 2
Width: 600
VWidth: 0
Flags: HW
LayerCount: 2
Fore
SplineSet
35.15625 405.46875 m 1
 35.15625 452.34375 l 1
 107.03125 452.34375 l 1
 107.03125 405.46875 l 1
 35.15625 405.46875 l 1
19.53125 374.21875 m 1
 122.65625 374.21875 l 1
 138.28125 374.21875 l 1
 138.28125 389.84375 l 1
 138.28125 467.96875 l 1
 138.28125 483.59375 l 1
 122.65625 483.59375 l 1
 19.53125 483.59375 l 1
 3.90625 483.59375 l 1
 3.90625 467.96875 l 1
 3.90625 389.84375 l 1
 3.90625 374.21875 l 1
 19.53125 374.21875 l 1
76.15625 139.84375 m 1
 10.095703125 89.7978515625 l 1
 19.53125 77.34375 l 1
 28.966796875 64.8896484375 l 1
 132.091796875 143.014648438 l 1
 138.28125 147.703125 l 1
 138.28125 155.46875 l 1
 138.28125 233.59375 l 1
 138.28125 249.21875 l 1
 122.65625 249.21875 l 1
 19.53125 249.21875 l 5
 3.90625 249.21875 l 1
 3.90625 233.59375 l 1
 3.90625 155.46875 l 1
 3.90625 139.84375 l 1
 19.53125 139.84375 l 1
 76.15625 139.84375 l 1
107.03125 171.09375 m 1
 35.15625 171.09375 l 1
 35.15625 217.96875 l 1
 107.03125 217.96875 l 1
 107.03125 171.09375 l 1
EndSplineSet
EndChar

StartChar: o
Encoding: 111 111 3
Width: 600
VWidth: 0
Flags: HW
LayerCount: 2
Fore
SplineSet
127.90625 171.09375 m 1
 35.15625 241.359375 l 1
 35.15625 460.203125 l 1
 127.90625 530.46875 l 1
 323.65625 530.46875 l 1
 416.40625 460.203125 l 1
 416.40625 241.359375 l 1
 323.65625 171.09375 l 1
 127.90625 171.09375 l 1
122.65625 155.46875 m 1
 122.65625 139.84375 l 1
 328.90625 139.84375 l 1
 334.15625 139.84375 l 1
 338.341796875 143.014648438 l 1
 441.466796875 221.139648438 l 1
 447.65625 225.828125 l 1
 447.65625 233.59375 l 1
 447.65625 467.96875 l 1
 447.65625 475.734375 l 1
 441.466796875 480.422851562 l 1
 338.341796875 558.547851562 l 1
 334.15625 561.71875 l 1
 328.90625 561.71875 l 1
 122.65625 561.71875 l 1
 117.40625 561.71875 l 1
 113.220703125 558.547851562 l 1
 10.095703125 480.422851562 l 1
 3.90625 475.734375 l 1
 3.90625 467.96875 l 1
 3.90625 233.59375 l 1
 3.90625 225.828125 l 1
 10.095703125 221.139648438 l 1
 113.220703125 143.014648438 l 1
 122.65625 155.46875 l 1
EndSplineSet
Validated: 9
EndChar

StartChar: parenright
Encoding: 41 41 4
Width: 600
VWidth: 0
Flags: HW
LayerCount: 2
Fore
SplineSet
19.53125 780.46875 m 1
 10.095703125 768.014648438 l 1
 111.088867188 691.504882812 l 1
 210.15625 541.40234375 l 1
 210.15625 394.53515625 l 1
 111.088867188 244.432617188 l 1
 10.095703125 167.922851562 l 1
 19.53125 155.46875 l 1
 28.966796875 143.014648438 l 1
 132.091796875 221.139648438 l 1
 134.223632812 222.754882812 l 1
 135.697265625 224.987304688 l 1
 238.822265625 381.237304688 l 1
 241.40625 385.15234375 l 1
 241.40625 389.84375 l 1
 241.40625 546.09375 l 1
 241.40625 550.78515625 l 1
 238.822265625 554.700195312 l 1
 135.697265625 710.950195312 l 1
 134.223632812 713.182617188 l 1
 132.091796875 714.797851562 l 1
 28.966796875 792.922851562 l 1
 19.53125 780.46875 l 1
EndSplineSet
Validated: 9
EndChar

StartChar: v
Encoding: 118 118 5
Width: 600
VWidth: 0
Flags: HW
LayerCount: 2
Fore
SplineSet
19.53125 546.09375 m 1
 5.7138671875 538.797851562 l 1
 211.963867188 148.172851562 l 1
 225.78125 122.00390625 l 1
 239.598632812 148.172851562 l 1
 445.848632812 538.797851562 l 1
 432.03125 546.09375 l 1
 418.213867188 553.389648438 l 1
 225.78125 188.93359375 l 1
 33.3486328125 553.389648438 l 1
 19.53125 546.09375 l 1
EndSplineSet
Validated: 9
EndChar

StartChar: x
Encoding: 120 120 6
Width: 600
VWidth: 0
Flags: HW
LayerCount: 2
Fore
SplineSet
19.53125 155.46875 m 1
 30.2744140625 144.123046875 l 1
 442.774414062 534.748046875 l 1
 432.03125 546.09375 l 1
 421.288085938 557.439453125 l 1
 8.7880859375 166.814453125 l 5
 19.53125 155.46875 l 1
19.53125 546.09375 m 1
 8.7880859375 534.748046875 l 1
 421.288085938 144.123046875 l 1
 432.03125 155.46875 l 1
 442.774414062 166.814453125 l 1
 30.2744140625 557.439453125 l 1
 19.53125 546.09375 l 1
EndSplineSet
EndChar

StartChar: braceright
Encoding: 125 125 7
Width: 600
VWidth: 0
Flags: HW
LayerCount: 2
Fore
SplineSet
19.53125 155.46875 m 1
 28.966796875 143.014648438 l 1
 132.091796875 221.139648438 l 1
 138.28125 225.828125 l 1
 138.28125 233.59375 l 1
 138.28125 382.078125 l 1
 235.216796875 455.514648438 l 1
 251.65625 467.96875 l 1
 235.216796875 480.422851562 l 1
 138.28125 553.859375 l 1
 138.28125 702.34375 l 1
 138.28125 710.109375 l 1
 132.091796875 714.797851562 l 1
 28.966796875 792.922851562 l 1
 19.53125 780.46875 l 1
 10.095703125 768.014648438 l 1
 107.03125 694.578125 l 1
 107.03125 546.09375 l 1
 107.03125 538.328125 l 1
 113.220703125 533.639648438 l 1
 199.90625 467.96875 l 1
 113.220703125 402.297851562 l 1
 107.03125 397.609375 l 1
 107.03125 389.84375 l 1
 107.03125 241.359375 l 1
 10.095703125 167.922851562 l 1
 19.53125 155.46875 l 1
EndSplineSet
Validated: 9
EndChar

StartChar: exclam
Encoding: 33 33 8
Width: 600
VWidth: 0
Flags: HW
LayerCount: 2
Fore
SplineSet
5 155 m 4
 5 163 12 170 20 170 c 4
 28 170 34 163 34 155 c 4
 34 147 28 141 20 141 c 4
 12 141 5 147 5 155 c 4
19.53125 780.46875 m 1
 3.90625 780.46875 l 1
 3.90625 311.71875 l 1
 19.53125 311.71875 l 1
 35.15625 311.71875 l 1
 35.15625 780.46875 l 1
 19.53125 780.46875 l 1
19.53125 155.46875 m 1025
19.53125 155.46875 m 1025
EndSplineSet
Validated: 1
EndChar

StartChar: V
Encoding: 86 86 9
Width: 600
VWidth: 0
Flags: HW
LayerCount: 2
Fore
SplineSet
19.53125 780.46875 m 1
 4.693359375 775.572265625 l 1
 210.943359375 150.572265625 l 1
 225.78125 105.608398438 l 1
 240.619140625 150.572265625 l 1
 446.869140625 775.572265625 l 1
 432.03125 780.46875 l 1
 417.193359375 785.365234375 l 1
 225.78125 205.329101562 l 1
 34.369140625 785.365234375 l 1
 19.53125 780.46875 l 1
EndSplineSet
Validated: 9
EndChar

StartChar: B
Encoding: 66 66 10
Width: 600
VWidth: 0
Flags: HW
LayerCount: 2
Fore
SplineSet
354.78125 467.96875 m 1
 441.466796875 533.639648438 l 1
 447.65625 538.328125 l 1
 447.65625 546.09375 l 1
 447.65625 702.34375 l 1
 447.65625 710.109375 l 1
 441.466796875 714.797851562 l 1
 338.341796875 792.922851562 l 1
 334.15625 796.09375 l 1
 328.90625 796.09375 l 1
 19.53125 796.09375 l 1
 3.90625 796.09375 l 1
 3.90625 780.46875 l 1
 3.90625 467.96875 l 1
 3.90625 155.46875 l 1
 19.53125 155.46875 l 1
 19.53125 139.84375 l 1
 328.90625 139.84375 l 1
 334.15625 139.84375 l 1
 338.341796875 143.014648438 l 1
 441.466796875 221.139648438 l 1
 447.65625 225.828125 l 1
 447.65625 233.59375 l 1
 447.65625 389.84375 l 1
 447.65625 397.609375 l 1
 441.466796875 402.297851562 l 1
 354.78125 467.96875 l 1
35.15625 483.59375 m 1
 35.15625 764.84375 l 1
 323.65625 764.84375 l 1
 416.40625 694.578125 l 1
 416.40625 553.859375 l 1
 323.65625 483.59375 l 1
 35.15625 483.59375 l 1
35.15625 452.34375 m 1
 323.65625 452.34375 l 1
 416.40625 382.078125 l 1
 416.40625 241.359375 l 1
 323.65625 171.09375 l 1
 35.15625 171.09375 l 1
 35.15625 452.34375 l 1
EndSplineSet
Validated: 9
EndChar

StartChar: M
Encoding: 77 77 11
Width: 600
VWidth: 0
Flags: HW
LayerCount: 2
Fore
SplineSet
19.53125 155.46875 m 1
 35.15625 155.46875 l 1
 35.15625 706.16015625 l 1
 211.479492188 305.42578125 l 1
 225.78125 272.921875 l 1
 240.083007812 305.42578125 l 1
 416.40625 706.16015625 l 1
 416.40625 155.46875 l 1
 432.03125 155.46875 l 1
 447.65625 155.46875 l 1
 447.65625 780.46875 l 1
 447.65625 854.77734375 l 1
 417.729492188 786.76171875 l 1
 225.78125 350.515625 l 1
 33.8330078125 786.76171875 l 1
 3.90625 854.77734375 l 1
 3.90625 780.46875 l 1
 3.90625 155.46875 l 1
 19.53125 155.46875 l 1
EndSplineSet
Validated: 9
EndChar

StartChar: bracketleft
Encoding: 91 91 12
Width: 600
VWidth: 0
Flags: HW
LayerCount: 2
Fore
SplineSet
432.03125 780.46875 m 1
 432.03125 796.09375 l 1
 225.78125 796.09375 l 1
 210.15625 796.09375 l 1
 210.15625 780.46875 l 1
 210.15625 155.46875 l 1
 210.15625 139.84375 l 1
 225.78125 139.84375 l 1
 432.03125 139.84375 l 1
 432.03125 155.46875 l 1
 432.03125 171.09375 l 1
 241.40625 171.09375 l 1
 241.40625 764.84375 l 1
 432.03125 764.84375 l 1
 432.03125 780.46875 l 1
EndSplineSet
Validated: 9
EndChar

StartChar: J
Encoding: 74 74 13
Width: 600
VWidth: 0
Flags: HW
LayerCount: 2
Fore
SplineSet
344.53125 796.09375 m 1
 225.78125 796.09375 l 1
 225.78125 764.84375 l 1
 313.28125 764.84375 l 1024
344.53125 764.84375 m 1
 432.03125 764.84375 l 1
 432.03125 780.46875 l 1
 432.03125 796.09375 l 1
 328.90625 796.09375 l 1
 225.78125 796.09375 l 2
 225.78125 795.3125 225 764.84375 225.78125 764.84375 c 2
 313.28125 764.84375 l 1
 313.28125 241.359375 l 1
 220.53125 171.09375 l 1
 127.90625 171.09375 l 1
 28.966796875 246.047851562 l 1
 19.53125 233.59375 l 1
 10.095703125 221.139648438 l 1
 113.220703125 143.014648438 l 1
 117.40625 139.84375 l 1
 122.65625 139.84375 l 1
 225.78125 139.84375 l 1
 231.03125 139.84375 l 1
 235.216796875 143.014648438 l 1
 338.341796875 221.139648438 l 1
 344.53125 225.828125 l 1
 344.53125 233.59375 l 1
 344.53125 764.84375 l 1
EndSplineSet
Validated: 11
EndChar

StartChar: two
Encoding: 50 50 14
Width: 600
VWidth: 0
Flags: HW
LayerCount: 2
Fore
SplineSet
19.53125 702.34375 m 1
 28.966796875 689.889648438 l 1
 127.90625 764.84375 l 1
 323.65625 764.84375 l 1
 416.40625 694.578125 l 1
 416.40625 555.186523438 l 1
 11.8125 325.303710938 l 1
 3.90625 320.811523438 l 1
 3.90625 311.71875 l 1
 3.90625 155.46875 l 1
 3.90625 139.84375 l 1
 19.53125 139.84375 l 1
 432.03125 139.84375 l 1
 432.03125 155.46875 l 1
 432.03125 171.09375 l 1
 35.15625 171.09375 l 1
 35.15625 302.625976562 l 1
 439.75 532.508789062 l 1
 447.65625 537.000976562 l 1
 447.65625 546.09375 l 1
 447.65625 702.34375 l 1
 447.65625 710.109375 l 1
 441.466796875 714.797851562 l 1
 338.341796875 792.922851562 l 1
 334.15625 796.09375 l 1
 328.90625 796.09375 l 1
 122.65625 796.09375 l 1
 117.40625 796.09375 l 1
 113.220703125 792.922851562 l 1
 10.095703125 714.797851562 l 1
 19.53125 702.34375 l 1
EndSplineSet
Validated: 9
EndChar

StartChar: k
Encoding: 107 107 15
Width: 600
VWidth: 0
Flags: HW
LayerCount: 2
Fore
SplineSet
253.586914062 460.265625 m 0
 449.072265625 164.075195312 l 1
 422.990234375 146.862304688 l 1
 223.625976562 448.928710938 l 1
 38 379 l 1
 39.15625 155.46875 l 1
 7.90625 155.46875 l 1
 7.90625 780.46875 l 1
 39.15625 780.46875 l 1
 39.15625 412.470703125 l 1
 422.451171875 557.658203125 l 1
 430.49609375 560.706054688 l 1
 441.56640625 531.481445312 l 1
 253.586914062 460.265625 l 0
EndSplineSet
Validated: 1
EndChar

StartChar: parenleft
Encoding: 40 40 16
Width: 600
VWidth: 0
Flags: HW
LayerCount: 2
Fore
SplineSet
432.03125 780.46875 m 1
 422.595703125 792.922851562 l 1
 319.470703125 714.797851562 l 1
 317.338867188 713.182617188 l 1
 315.865234375 710.950195312 l 1
 212.740234375 554.700195312 l 1
 210.15625 550.78515625 l 1
 210.15625 546.09375 l 1
 210.15625 389.84375 l 1
 210.15625 385.15234375 l 1
 212.740234375 381.237304688 l 1
 315.865234375 224.987304688 l 1
 317.338867188 222.754882812 l 1
 319.470703125 221.139648438 l 1
 422.595703125 143.014648438 l 1
 432.03125 155.46875 l 1
 441.466796875 167.922851562 l 1
 340.473632812 244.432617188 l 1
 241.40625 394.53515625 l 1
 241.40625 541.40234375 l 1
 340.473632812 691.504882812 l 1
 441.466796875 768.014648438 l 1
 432.03125 780.46875 l 1
EndSplineSet
Validated: 9
EndChar

StartChar: Z
Encoding: 90 90 17
Width: 600
VWidth: 0
Flags: HW
LayerCount: 2
Fore
SplineSet
19.53125 780.46875 m 1
 19.53125 764.84375 l 1
 402.997070312 764.84375 l 1
 6.490234375 164.075195312 l 1
 -9.5029296875 139.84375 l 1
 19.53125 139.84375 l 1
 432.03125 139.84375 l 1
 432.03125 155.46875 l 1
 432.03125 171.09375 l 1
 48.5654296875 171.09375 l 1
 445.072265625 771.862304688 l 1
 461.065429688 796.09375 l 1
 432.03125 796.09375 l 1
 19.53125 796.09375 l 1
 19.53125 780.46875 l 1
EndSplineSet
Validated: 9
EndChar

StartChar: at
Encoding: 64 64 18
Width: 600
VWidth: 0
Flags: HW
LayerCount: 2
Fore
SplineSet
313.28125 358.404296875 m 1
 313.28125 311.71875 l 1
 313.28125 280.279296875 l 1
 338.341796875 299.264648438 l 1
 441.466796875 377.389648438 l 1
 447.65625 382.078125 l 1
 447.65625 389.84375 l 1
 447.65625 702.34375 l 1
 447.65625 710.109375 l 1
 441.466796875 714.797851562 l 1
 338.341796875 792.922851562 l 1
 334.15625 796.09375 l 1
 328.90625 796.09375 l 1
 122.65625 796.09375 l 1
 117.40625 796.09375 l 1
 113.220703125 792.922851562 l 1
 10.095703125 714.797851562 l 1
 3.90625 710.109375 l 1
 3.90625 702.34375 l 1
 3.90625 233.59375 l 1
 3.90625 225.828125 l 1
 10.095703125 221.139648438 l 1
 113.220703125 143.014648438 l 1
 117.40625 139.84375 l 1
 122.65625 139.84375 l 1
 328.90625 139.84375 l 1
 334.15625 139.84375 l 1
 338.341796875 143.014648438 l 1
 441.466796875 221.139648438 l 1
 432.03125 233.59375 l 1
 422.595703125 246.047851562 l 1
 323.65625 171.09375 l 1
 127.90625 171.09375 l 1
 35.15625 241.359375 l 1
 35.15625 694.578125 l 1
 127.90625 764.84375 l 1
 323.65625 764.84375 l 1
 416.40625 694.578125 l 1
 416.40625 397.609375 l 1
 344.53125 343.158203125 l 1
 344.53125 378.125 l 1
 344.53125 624.21875 l 1
 344.53125 639.84375 l 1
 328.90625 639.84375 l 1
 225.78125 639.84375 l 1
 220.53125 639.84375 l 1
 216.345703125 636.672851562 l 1
 113.220703125 558.547851562 l 1
 107.03125 553.859375 l 1
 107.03125 546.09375 l 1
 107.03125 311.71875 l 1
 107.03125 296.09375 l 1
 122.65625 296.09375 l 1
 225.78125 296.09375 l 1
 231.03125 296.09375 l 1
 235.216796875 299.264648438 l 1
 313.28125 358.404296875 l 1
313.28125 397.609375 m 1
 220.53125 327.34375 l 1
 138.28125 327.34375 l 1
 138.28125 538.328125 l 1
 231.03125 608.59375 l 1
 313.28125 608.59375 l 1
 313.28125 397.609375 l 1
EndSplineSet
Validated: 9
EndChar

StartChar: E
Encoding: 69 69 19
Width: 600
VWidth: 0
Flags: HW
LayerCount: 2
Fore
SplineSet
35.15625 452.34375 m 1
 328.90625 452.34375 l 1
 328.90625 483.59375 l 1
 35.15625 483.59375 l 1
 35.15625 452.34375 l 1
3.90625 452.34375 m 1
 3.90625 139.84375 l 1
 432.03125 139.84375 l 1
 432.03125 171.09375 l 1
 35.15625 171.09375 l 1
 35.15625 452.34375 l 1
 328.90625 452.34375 l 2
 328.90625 453.125 329.6875 483.59375 328.90625 483.59375 c 2
 35.15625 483.59375 l 1
 35.15625 764.84375 l 1
 432.03125 764.84375 l 1
 432.03125 796.09375 l 1
 3.90625 796.09375 l 1
 3.90625 452.34375 l 1
EndSplineSet
Validated: 5
EndChar

StartChar: colon
Encoding: 58 58 20
Width: 600
VWidth: 0
Flags: HW
LayerCount: 2
Fore
SplineSet
35.15625 405.46875 m 1
 35.15625 452.34375 l 1
 107.03125 452.34375 l 1
 107.03125 405.46875 l 1
 35.15625 405.46875 l 1
19.53125 374.21875 m 1
 122.65625 374.21875 l 1
 138.28125 374.21875 l 1
 138.28125 389.84375 l 1
 138.28125 467.96875 l 1
 138.28125 483.59375 l 1
 122.65625 483.59375 l 1
 19.53125 483.59375 l 1
 3.90625 483.59375 l 1
 3.90625 467.96875 l 1
 3.90625 389.84375 l 1
 3.90625 374.21875 l 1
 19.53125 374.21875 l 1
35.15625 217.96875 m 1
 107.03125 217.96875 l 1
 107.03125 171.09375 l 1
 35.15625 171.09375 l 1
 35.15625 217.96875 l 1
5 249 m 1
 3.90625 233.59375 l 1
 3.90625 155.46875 l 1
 3.90625 139.84375 l 1
 19.53125 139.84375 l 1
 122.65625 139.84375 l 1
 138.28125 139.84375 l 1
 138.28125 155.46875 l 1
 138.28125 233.59375 l 1
 138.28125 249.21875 l 1
 122.65625 249.21875 l 1
 19.53125 249.21875 l 1
 5 249 l 1
EndSplineSet
EndChar

StartChar: bracketright
Encoding: 93 93 21
Width: 600
VWidth: 0
Flags: HW
LayerCount: 2
Fore
SplineSet
19.53125 155.46875 m 1
 19.53125 139.84375 l 1
 225.78125 139.84375 l 1
 241.40625 139.84375 l 1
 241.40625 155.46875 l 1
 241.40625 780.46875 l 1
 241.40625 796.09375 l 1
 225.78125 796.09375 l 1
 19.53125 796.09375 l 1
 19.53125 780.46875 l 1
 19.53125 764.84375 l 1
 210.15625 764.84375 l 1
 210.15625 171.09375 l 1
 19.53125 171.09375 l 1
 19.53125 155.46875 l 1
EndSplineSet
Validated: 9
EndChar

StartChar: y
Encoding: 121 121 22
Width: 600
VWidth: 0
Flags: HW
LayerCount: 2
Fore
SplineSet
203.458984375 231.209960938 m 4
 225.78125 188.93359375 l 1
 418.213867188 553.389648438 l 1
 445.848632812 538.797851562 l 1
 243.450195312 155.46875 l 2
 243.450195312 155.46875 243.553710938 155.274414062 243.91796875 154.583007812 c 1
 239.2421875 147.499023438 l 1
 225.78125 122.00390625 l 1
 224.28515625 124.836914062 l 1
 32.572265625 -165.637695312 l 1
 6.490234375 -148.424804688 l 1
 207.64453125 156.354492188 l 1
 186.958984375 195.532226562 l 2
 186.958984375 195.532226562 184.950195312 199.334960938 184.5859375 200.026367188 c 0
 7.7216796875 534.995117188 l 2
 5.69325725892 538.836809872 6.0791015625 538.107421875 5.7138671875 538.797851562 c 1
 33.3486328125 553.389648438 l 1
 33.712890625 552.698242188 33.3486328125 553.388671875 34.078125 552.006835938 c 0
 34.5343362168 551.142660741 34.4449368933 551.313793861 35.904296875 548.549804688 c 2
 42.83984375 535.4140625 l 0
 73.9495970439 476.463776152 44.9023688303 531.461127847 203.458984375 231.209960938 c 4
EndSplineSet
Validated: 1
EndChar

StartChar: R
Encoding: 82 82 23
Width: 600
VWidth: 0
Flags: HW
LayerCount: 2
Fore
SplineSet
19.53125 155.46875 m 1
 35.15625 155.46875 l 1
 35.15625 452.34375 l 1
 217.372070312 452.34375 l 1
 218.337890625 450.880859375 l 1
 418.990234375 146.862304688 l 1
 432.03125 155.46875 l 1
 445.072265625 164.075195312 l 1
 254.815429688 452.34375 l 1
 328.90625 452.34375 l 1
 334.15625 452.34375 l 1
 338.341796875 455.514648438 l 1
 441.466796875 533.639648438 l 1
 447.65625 538.328125 l 1
 447.65625 546.09375 l 1
 447.65625 702.34375 l 1
 447.65625 710.109375 l 1
 441.466796875 714.797851562 l 1
 338.341796875 792.922851562 l 1
 334.15625 796.09375 l 1
 328.90625 796.09375 l 1
 19.53125 796.09375 l 1
 3.90625 796.09375 l 1
 3.90625 780.46875 l 1
 3.90625 467.96875 l 1
 3.90625 155.46875 l 1
 19.53125 155.46875 l 1
35.15625 483.59375 m 1
 35.15625 764.84375 l 1
 323.65625 764.84375 l 1
 416.40625 694.578125 l 1
 416.40625 553.859375 l 1
 323.65625 483.59375 l 1
 236.71875 483.59375 l 1
 35.15625 483.59375 l 1
EndSplineSet
Validated: 9
EndChar

StartChar: T
Encoding: 84 84 24
Width: 600
VWidth: 0
Flags: HW
LayerCount: 2
Fore
SplineSet
241.40625 764.84375 m 0
 432.03125 764.84375 l 1
 432.03125 796.09375 l 1
 210.15625 796.09375 l 1025
19.53125 780.46875 m 1
 19.53125 764.84375 l 1
 210.15625 764.84375 l 1
 210.15625 155.46875 l 1
 225.78125 155.46875 l 1
 241.40625 155.46875 l 1
 241.40625 764.84375 l 1
 432.03125 764.84375 l 2
 432.03125 765.625 432.8125 796.09375 432.03125 796.09375 c 2
 225.78125 796.09375 l 1
 19.53125 796.09375 l 1
 19.53125 780.46875 l 1
EndSplineSet
Validated: 11
EndChar

StartChar: h
Encoding: 104 104 25
Width: 600
VWidth: 0
Flags: HW
LayerCount: 2
Fore
SplineSet
35.15625 562.5 m 0
 35.15625 780.46875 l 1
 3.90625 780.46875 l 1
 3.90625 530.46875 l 1025
19.53125 155.46875 m 1
 35.15625 155.46875 l 1
 35.15625 530.46875 l 1
 323.65625 530.46875 l 1
 416.40625 460.203125 l 1
 416.40625 155.46875 l 1
 432.03125 155.46875 l 1
 447.65625 155.46875 l 1
 447.65625 467.96875 l 1
 447.65625 475.734375 l 1
 441.466796875 480.422851562 l 1
 338.341796875 558.547851562 l 1
 334.15625 561.71875 l 1
 328.90625 561.71875 l 1
 35.15625 561.71875 l 1
 35.15625 780.46875 l 2
 34.375 780.46875 3.90625 781.25 3.90625 780.46875 c 2
 3.90625 546.09375 l 1
 3.90625 155.46875 l 1
 19.53125 155.46875 l 1
EndSplineSet
Validated: 11
EndChar

StartChar: S
Encoding: 83 83 26
Width: 600
VWidth: 0
Flags: HW
LayerCount: 2
Fore
SplineSet
19.53125 233.59375 m 1
 10.095703125 221.139648438 l 1
 113.220703125 143.014648438 l 1
 117.40625 139.84375 l 1
 122.65625 139.84375 l 1
 328.90625 139.84375 l 1
 334.15625 139.84375 l 1
 338.341796875 143.014648438 l 1
 441.466796875 221.139648438 l 1
 447.65625 225.828125 l 1
 447.65625 233.59375 l 1
 447.65625 389.84375 l 1
 447.65625 397.609375 l 1
 441.466796875 402.297851562 l 1
 338.341796875 480.422851562 l 1
 334.15625 483.59375 l 1
 328.90625 483.59375 l 1
 127.90625 483.59375 l 1
 35.15625 553.859375 l 1
 35.15625 694.578125 l 1
 127.90625 764.84375 l 1
 323.65625 764.84375 l 1
 422.595703125 689.889648438 l 1
 432.03125 702.34375 l 1
 441.466796875 714.797851562 l 1
 338.341796875 792.922851562 l 1
 334.15625 796.09375 l 1
 328.90625 796.09375 l 1
 122.65625 796.09375 l 1
 117.40625 796.09375 l 1
 113.220703125 792.922851562 l 1
 10.095703125 714.797851562 l 1
 3.90625 710.109375 l 1
 3.90625 702.34375 l 1
 3.90625 546.09375 l 1
 3.90625 538.328125 l 1
 10.095703125 533.639648438 l 1
 113.220703125 455.514648438 l 1
 117.40625 452.34375 l 1
 122.65625 452.34375 l 1
 323.65625 452.34375 l 1
 416.40625 382.078125 l 1
 416.40625 241.359375 l 1
 323.65625 171.09375 l 1
 127.90625 171.09375 l 1
 28.966796875 246.047851562 l 1
 19.53125 233.59375 l 1
EndSplineSet
Validated: 9
EndChar

StartChar: asciitilde
Encoding: 126 126 27
Width: 600
VWidth: 0
Flags: HW
LayerCount: 2
Fore
SplineSet
19.53125 624.21875 m 1
 28.966796875 611.764648438 l 1
 125.203125 684.670898438 l 1
 323.37109375 609.606445312 l 1
 331.453125 606.545898438 l 1
 338.341796875 611.764648438 l 1
 441.466796875 689.889648438 l 1
 432.03125 702.34375 l 1
 422.595703125 714.797851562 l 1
 326.359375 641.891601562 l 1
 128.19140625 716.956054688 l 1
 120.109375 720.016601562 l 1
 113.220703125 714.797851562 l 1
 10.095703125 636.672851562 l 1
 19.53125 624.21875 l 1
EndSplineSet
Validated: 9
EndChar

StartChar: comma
Encoding: 44 44 28
Width: 600
VWidth: 0
Flags: HW
LayerCount: 2
Fore
SplineSet
76.15625 139.84375 m 1
 10.095703125 89.7978515625 l 1
 19.53125 77.34375 l 1
 28.966796875 64.8896484375 l 1
 132.091796875 143.014648438 l 1
 138.28125 147.703125 l 1
 138.28125 155.46875 l 1
 138.28125 233.59375 l 1
 138.28125 249.21875 l 1
 122.65625 249.21875 l 1
 19.53125 249.21875 l 1
 3.90625 249.21875 l 1
 3.90625 233.59375 l 1
 3.90625 155.46875 l 1
 3.90625 139.84375 l 1
 19.53125 139.84375 l 1
 76.15625 139.84375 l 1
107.03125 171.09375 m 1
 35.15625 171.09375 l 1
 35.15625 217.96875 l 1
 107.03125 217.96875 l 1
 107.03125 171.09375 l 1
EndSplineSet
Validated: 9
EndChar

StartChar: numbersign
Encoding: 35 35 29
Width: 600
VWidth: 0
Flags: HW
LayerCount: 2
Fore
SplineSet
19.53125 155.46875 m 1
 34.369140625 150.572265625 l 1
 240.619140625 775.572265625 l 1
 225.78125 780.46875 l 1
 210.943359375 785.365234375 l 1
 4.693359375 160.365234375 l 1
 19.53125 155.46875 l 1
432.03125 780.46875 m 1
 417.193359375 785.365234375 l 1
 210.943359375 160.365234375 l 1
 225.78125 155.46875 l 1
 240.619140625 150.572265625 l 1
 446.869140625 775.572265625 l 1
 432.03125 780.46875 l 1
432.03125 389.84375 m 1
 432.03125 405.46875 l 1
 19.53125 405.46875 l 1
 19.53125 389.84375 l 1
 19.53125 374.21875 l 1
 432.03125 374.21875 l 1
 432.03125 389.84375 l 1
19.53125 546.09375 m 1
 19.53125 530.46875 l 1
 432.03125 530.46875 l 1
 432.03125 546.09375 l 1
 432.03125 561.71875 l 1
 19.53125 561.71875 l 1
 19.53125 546.09375 l 1
432.03125 780.46875 m 1
 417.193359375 785.365234375 l 1
 210.943359375 160.365234375 l 1
 225.78125 155.46875 l 1
 240.619140625 150.572265625 l 1
 446.869140625 775.572265625 l 1
 432.03125 780.46875 l 1
432.03125 389.84375 m 1
 432.03125 405.46875 l 1
 19.53125 405.46875 l 1
 19.53125 389.84375 l 1
 19.53125 374.21875 l 1
 432.03125 374.21875 l 1
 432.03125 389.84375 l 1
19.53125 546.09375 m 1
 19.53125 530.46875 l 1
 432.03125 530.46875 l 1
 432.03125 546.09375 l 1
 432.03125 561.71875 l 1
 19.53125 561.71875 l 1
 19.53125 546.09375 l 1
432.03125 389.84375 m 1
 432.03125 405.46875 l 1
 19.53125 405.46875 l 1
 19.53125 389.84375 l 1
 19.53125 374.21875 l 1
 432.03125 374.21875 l 1
 432.03125 389.84375 l 1
19.53125 546.09375 m 1
 19.53125 530.46875 l 1
 432.03125 530.46875 l 1
 432.03125 546.09375 l 1
 432.03125 561.71875 l 1
 19.53125 561.71875 l 1
 19.53125 546.09375 l 1
19.53125 546.09375 m 1
 19.53125 530.46875 l 1
 432.03125 530.46875 l 1
 432.03125 546.09375 l 1
 432.03125 561.71875 l 1
 19.53125 561.71875 l 1
 19.53125 546.09375 l 1
EndSplineSet
Validated: 5
EndChar

StartChar: less
Encoding: 60 60 30
Width: 600
VWidth: 0
Flags: HW
LayerCount: 2
Fore
SplineSet
432.03125 624.21875 m 1
 426.49609375 638.831054688 l 1
 13.99609375 482.581054688 l 1
 -24.5791015625 467.96875 l 1
 13.99609375 453.356445312 l 1
 426.49609375 297.106445312 l 1
 432.03125 311.71875 l 1
 437.56640625 326.331054688 l 1
 63.6416015625 467.96875 l 1
 437.56640625 609.606445312 l 1
 432.03125 624.21875 l 1
EndSplineSet
Validated: 9
EndChar

StartChar: backslash
Encoding: 92 92 31
Width: 600
VWidth: 0
Flags: HW
LayerCount: 2
Fore
SplineSet
19.53125 780.46875 m 1
 6.490234375 771.862304688 l 1
 418.990234375 146.862304688 l 1
 432.03125 155.46875 l 1
 445.072265625 164.075195312 l 1
 32.572265625 789.075195312 l 1
 19.53125 780.46875 l 1
EndSplineSet
Validated: 9
EndChar

StartChar: underscore
Encoding: 95 95 32
Width: 600
VWidth: 0
Flags: HW
LayerCount: 2
Fore
SplineSet
19.53125 77.34375 m 1
 19.53125 61.71875 l 1
 638.28125 61.71875 l 1
 638.28125 77.34375 l 1
 638.28125 92.96875 l 1
 19.53125 92.96875 l 1
 19.53125 77.34375 l 1
EndSplineSet
Validated: 9
EndChar

StartChar: f
Encoding: 102 102 33
Width: 600
VWidth: 0
Flags: HW
LayerCount: 2
Fore
SplineSet
122.65625 155.46875 m 1
 138.28125 155.46875 l 1
 138.28125 452.34375 l 1
 328.90625 452.34375 l 1
 328.90625 483.59375 l 1
 138.28125 483.59375 l 1
 138.28125 694.578125 l 1
 231.03125 764.84375 l 1
 323.65625 764.84375 l 1
 422.595703125 689.889648438 l 1
 432.03125 702.34375 l 1
 441.466796875 714.797851562 l 1
 338.341796875 792.922851562 l 1
 334.15625 796.09375 l 1
 328.90625 796.09375 l 1
 225.78125 796.09375 l 1
 220.53125 796.09375 l 1
 216.345703125 792.922851562 l 1
 113.220703125 714.797851562 l 1
 107.03125 710.109375 l 1
 107.03125 702.34375 l 1
 107.03125 483.59375 l 1
 19.53125 483.59375 l 2
 19.53125 482.8125 18.75 452.34375 19.53125 452.34375 c 2
 107.03125 452.34375 l 1
 107.03125 155.46875 l 1
 122.65625 155.46875 l 1
EndSplineSet
EndChar

StartChar: quotesingle
Encoding: 39 39 34
Width: 600
VWidth: 0
Flags: HW
LayerCount: 2
Fore
SplineSet
225.78125 780.46875 m 1
 212.740234375 789.075195312 l 1
 109.615234375 632.825195312 l 1
 122.65625 624.21875 l 1
 135.697265625 615.612304688 l 1
 238.822265625 771.862304688 l 1
 225.78125 780.46875 l 1
EndSplineSet
Validated: 9
EndChar

StartChar: U
Encoding: 85 85 35
Width: 600
VWidth: 0
Flags: HW
LayerCount: 2
Fore
SplineSet
19.53125 780.46875 m 1
 3.90625 780.46875 l 1
 3.90625 233.59375 l 1
 3.90625 225.828125 l 1
 10.095703125 221.139648438 l 1
 113.220703125 143.014648438 l 1
 117.40625 139.84375 l 1
 122.65625 139.84375 l 1
 328.90625 139.84375 l 1
 334.15625 139.84375 l 1
 338.341796875 143.014648438 l 1
 441.466796875 221.139648438 l 1
 447.65625 225.828125 l 1
 447.65625 233.59375 l 1
 447.65625 780.46875 l 1
 432.03125 780.46875 l 1
 416.40625 780.46875 l 1
 416.40625 241.359375 l 1
 323.65625 171.09375 l 1
 127.90625 171.09375 l 1
 35.15625 241.359375 l 1
 35.15625 780.46875 l 1
 19.53125 780.46875 l 1
EndSplineSet
Validated: 9
EndChar

StartChar: r
Encoding: 114 114 36
Width: 600
VWidth: 0
Flags: HW
LayerCount: 2
Fore
SplineSet
35.15625 490.625 m 0
 35.15625 546.09375 l 1
 3.90625 546.09375 l 1
 3.90625 445.341796875 l 1025
19.53125 155.46875 m 1
 35.15625 155.46875 l 1
 35.15625 457.178710938 l 1
 228.641601562 530.46875 l 1
 323.65625 530.46875 l 1
 422.595703125 455.514648438 l 1
 432.03125 467.96875 l 1
 441.466796875 480.422851562 l 1
 338.341796875 558.547851562 l 1
 334.15625 561.71875 l 1
 328.90625 561.71875 l 1
 225.78125 561.71875 l 1
 222.920898438 561.71875 l 1
 220.24609375 560.706054688 l 1
 35.15625 490.595703125 l 1
 35.15625 546.09375 l 2
 34.375 546.09375 3.90625 546.875 3.90625 546.09375 c 2
 3.90625 473.4375 l 1
 3.90625 155.46875 l 1
 19.53125 155.46875 l 1
EndSplineSet
Validated: 11
EndChar

StartChar: six
Encoding: 54 54 37
Width: 600
VWidth: 0
Flags: HW
LayerCount: 2
Fore
SplineSet
35.15625 499.408203125 m 1
 35.15625 694.578125 l 1
 127.90625 764.84375 l 1
 323.65625 764.84375 l 1
 422.595703125 689.889648438 l 1
 432.03125 702.34375 l 1
 441.466796875 714.797851562 l 1
 338.341796875 792.922851562 l 1
 334.15625 796.09375 l 1
 328.90625 796.09375 l 1
 122.65625 796.09375 l 1
 117.40625 796.09375 l 1
 113.220703125 792.922851562 l 1
 10.095703125 714.797851562 l 1
 3.90625 710.109375 l 1
 3.90625 702.34375 l 1
 3.90625 479.6875 l 1
 3.90625 233.59375 l 1
 3.90625 225.828125 l 1
 10.095703125 221.139648438 l 1
 113.220703125 143.014648438 l 1
 117.40625 139.84375 l 1
 122.65625 139.84375 l 1
 328.90625 139.84375 l 1
 334.15625 139.84375 l 1
 338.341796875 143.014648438 l 1
 441.466796875 221.139648438 l 1
 447.65625 225.828125 l 1
 447.65625 233.59375 l 1
 447.65625 467.96875 l 1
 447.65625 475.734375 l 1
 441.466796875 480.422851562 l 1
 338.341796875 558.547851562 l 1
 334.15625 561.71875 l 1
 328.90625 561.71875 l 1
 122.65625 561.71875 l 1
 117.40625 561.71875 l 1
 113.220703125 558.547851562 l 1
 35.15625 499.408203125 l 1
35.15625 460.203125 m 2
 35.8388671875 460.720703125 35.21875 460.250976562 35.841796875 460.72265625 c 2
 127.90625 530.46875 l 1
 323.65625 530.46875 l 1
 416.40625 460.203125 l 1
 416.40625 241.359375 l 1
 323.65625 171.09375 l 1
 127.90625 171.09375 l 1
 35.15625 241.359375 l 1
 35.15625 460.203125 l 2
EndSplineSet
Validated: 9
EndChar

StartChar: A
Encoding: 65 65 38
Width: 600
VWidth: 0
Flags: HW
LayerCount: 2
Fore
SplineSet
340.204101562 483.59375 m 1
 225.78125 830.329101562 l 1
 4.693359375 160.365234375 l 1
 34.369140625 150.572265625 l 1
 133.954101562 452.34375 l 1
 317.608398438 452.34375 l 1
 417.193359375 150.572265625 l 1
 446.869140625 160.365234375 l 1
 340.204101562 483.59375 l 1
144.266601562 483.59375 m 1
 225.78125 730.608398438 l 1
 307.295898438 483.59375 l 1
 144.266601562 483.59375 l 1
EndSplineSet
Validated: 9
EndChar

StartChar: b
Encoding: 98 98 39
Width: 600
VWidth: 0
Flags: HW
LayerCount: 2
Fore
SplineSet
35.15625 561.71875 m 1
 35.15625 780.46875 l 1
 19.53125 780.46875 l 1
 3.90625 780.46875 l 1
 3.90625 546.09375 l 1
 3.90625 155.46875 l 1
 3.90625 139.84375 l 1
 19.53125 139.84375 l 1
 328.90625 139.84375 l 1
 334.15625 139.84375 l 1
 338.341796875 143.014648438 l 1
 441.466796875 221.139648438 l 1
 447.65625 225.828125 l 1
 447.65625 233.59375 l 1
 447.65625 467.96875 l 1
 447.65625 475.734375 l 1
 441.466796875 480.422851562 l 1
 338.341796875 558.547851562 l 1
 334.15625 561.71875 l 1
 328.90625 561.71875 l 1
 35.15625 561.71875 l 1
35.15625 530.46875 m 1
 323.65625 530.46875 l 1
 416.40625 460.203125 l 1
 416.40625 241.359375 l 1
 323.65625 171.09375 l 1
 35.15625 171.09375 l 1
 35.15625 530.46875 l 1
EndSplineSet
Validated: 9
EndChar

StartChar: Y
Encoding: 89 89 40
Width: 600
VWidth: 0
Flags: HW
LayerCount: 2
Fore
SplineSet
241.40625 463.27734375 m 4
 241.40625 155.46875 l 1
 210.15625 155.46875 l 1
 210.15625 463.27734375 l 1
 6.490234375 771.862304688 l 1
 32.572265625 789.075195312 l 1
 225.473632812 496.799804688 l 0
 389.495117188 744.385742188 l 2
 390.69735958 746.200494145 390.141601562 745.365234375 390.572265625 746.017578125 c 0
 391.001953125 746.668945312 390.573242188 746.01953125 392.940429688 749.60546875 c 2
 418.990234375 789.075195312 l 1
 445.072265625 771.862304688 l 1
 444.641601562 771.209960938 445.071289062 771.861328125 443.995117188 770.23046875 c 0
 443.380859375 769.299804688 443.127751209 768.91568412 441.842773438 766.96875 c 2
 241.40625 463.27734375 l 4
EndSplineSet
Validated: 1
EndChar

StartChar: G
Encoding: 71 71 41
Width: 600
VWidth: 0
Flags: HW
LayerCount: 2
Fore
SplineSet
328.90625 389.84375 m 1
 328.90625 374.21875 l 1
 416.40625 374.21875 l 1
 416.40625 241.359375 l 1
 323.65625 171.09375 l 1
 127.90625 171.09375 l 1
 35.15625 241.359375 l 1
 35.15625 694.578125 l 1
 127.90625 764.84375 l 1
 323.65625 764.84375 l 1
 422.595703125 689.889648438 l 1
 432.03125 702.34375 l 1
 441.466796875 714.797851562 l 1
 338.341796875 792.922851562 l 1
 334.15625 796.09375 l 1
 328.90625 796.09375 l 1
 122.65625 796.09375 l 1
 117.40625 796.09375 l 1
 113.220703125 792.922851562 l 1
 10.095703125 714.797851562 l 1
 3.90625 710.109375 l 1
 3.90625 702.34375 l 1
 3.90625 233.59375 l 1
 3.90625 225.828125 l 1
 10.095703125 221.139648438 l 1
 113.220703125 143.014648438 l 1
 117.40625 139.84375 l 1
 122.65625 139.84375 l 1
 328.90625 139.84375 l 1
 334.15625 139.84375 l 1
 338.341796875 143.014648438 l 1
 441.466796875 221.139648438 l 1
 447.65625 225.828125 l 1
 447.65625 233.59375 l 1
 447.65625 389.84375 l 1
 447.65625 405.46875 l 1
 432.03125 405.46875 l 1
 328.90625 405.46875 l 1
 328.90625 389.84375 l 1
EndSplineSet
Validated: 9
EndChar

StartChar: grave
Encoding: 96 96 42
Width: 600
VWidth: 0
Flags: HW
LayerCount: 2
Fore
SplineSet
225.78125 780.46875 m 1
 212.740234375 771.862304688 l 1
 315.865234375 615.612304688 l 1
 328.90625 624.21875 l 1
 341.947265625 632.825195312 l 1
 238.822265625 789.075195312 l 1
 225.78125 780.46875 l 1
EndSplineSet
Validated: 9
EndChar

StartChar: percent
Encoding: 37 37 43
Width: 600
VWidth: 0
Flags: HW
LayerCount: 2
Fore
SplineSet
199.90625 702.34375 m 1
 122.65625 643.821289062 l 1
 45.40625 702.34375 l 1
 122.65625 760.866210938 l 1
 199.90625 702.34375 l 1
235.216796875 714.797851562 m 1
 132.091796875 792.922851562 l 1
 122.65625 800.071289062 l 1
 113.220703125 792.922851562 l 1
 10.095703125 714.797851562 l 1
 -6.34375 702.34375 l 1
 10.095703125 689.889648438 l 1
 113.220703125 611.764648438 l 1
 122.65625 604.616210938 l 1
 132.091796875 611.764648438 l 1
 235.216796875 689.889648438 l 1
 251.65625 702.34375 l 1
 235.216796875 714.797851562 l 1
432.03125 780.46875 m 1
 418.990234375 789.075195312 l 1
 6.490234375 164.075195312 l 1
 19.53125 155.46875 l 1
 32.572265625 146.862304688 l 1
 445.072265625 771.862304688 l 1
 432.03125 780.46875 l 1
251.65625 233.59375 m 1
 328.90625 292.116210938 l 1
 406.15625 233.59375 l 1
 328.90625 175.071289062 l 1
 251.65625 233.59375 l 1
225.78125 233.59375 m 1
 216.345703125 221.139648438 l 1
 319.470703125 143.014648438 l 1
 328.90625 135.866210938 l 1
 338.341796875 143.014648438 l 1
 441.466796875 221.139648438 l 1
 457.90625 233.59375 l 1
 441.466796875 246.047851562 l 1
 338.341796875 324.172851562 l 1
 328.90625 331.321289062 l 1
 319.470703125 324.172851562 l 1
 216.345703125 246.047851562 l 1
 225.78125 233.59375 l 1
432.03125 780.46875 m 1
 418.990234375 789.075195312 l 1
 6.490234375 164.075195312 l 1
 19.53125 155.46875 l 1
 32.572265625 146.862304688 l 1
 445.072265625 771.862304688 l 1
 432.03125 780.46875 l 1
251.65625 233.59375 m 1
 328.90625 292.116210938 l 1
 406.15625 233.59375 l 1
 328.90625 175.071289062 l 1
 251.65625 233.59375 l 1
225.78125 233.59375 m 1
 216.345703125 221.139648438 l 1
 319.470703125 143.014648438 l 1
 328.90625 135.866210938 l 1
 338.341796875 143.014648438 l 1
 441.466796875 221.139648438 l 1
 457.90625 233.59375 l 1
 441.466796875 246.047851562 l 1
 338.341796875 324.172851562 l 1
 328.90625 331.321289062 l 1
 319.470703125 324.172851562 l 1
 216.345703125 246.047851562 l 1
 225.78125 233.59375 l 1
251.65625 233.59375 m 1
 328.90625 292.116210938 l 1
 406.15625 233.59375 l 1
 328.90625 175.071289062 l 1
 251.65625 233.59375 l 1
225.78125 233.59375 m 1
 216.345703125 221.139648438 l 1
 319.470703125 143.014648438 l 1
 328.90625 135.866210938 l 1
 338.341796875 143.014648438 l 1
 441.466796875 221.139648438 l 1
 457.90625 233.59375 l 1
 441.466796875 246.047851562 l 1
 338.341796875 324.172851562 l 1
 328.90625 331.321289062 l 1
 319.470703125 324.172851562 l 1
 216.345703125 246.047851562 l 1
 225.78125 233.59375 l 1
EndSplineSet
Validated: 5
EndChar

StartChar: quotedbl
Encoding: 34 34 44
Width: 600
VWidth: 0
Flags: HW
LayerCount: 2
Fore
SplineSet
122.65625 780.46875 m 1
 107.03125 780.46875 l 1
 107.03125 624.21875 l 1
 122.65625 624.21875 l 1
 138.28125 624.21875 l 1
 138.28125 780.46875 l 1
 122.65625 780.46875 l 1
328.90625 780.46875 m 1
 313.28125 780.46875 l 1
 313.28125 624.21875 l 1
 328.90625 624.21875 l 1
 344.53125 624.21875 l 1
 344.53125 780.46875 l 1
 328.90625 780.46875 l 1
328.90625 780.46875 m 1
 313.28125 780.46875 l 1
 313.28125 624.21875 l 1
 328.90625 624.21875 l 1
 344.53125 624.21875 l 1
 344.53125 780.46875 l 1
 328.90625 780.46875 l 1
EndSplineSet
Validated: 5
EndChar

StartChar: one
Encoding: 49 49 45
Width: 600
VWidth: 0
Flags: HW
LayerCount: 2
Fore
SplineSet
210.15625 171.09375 m 0
 122.65625 171.09375 l 1
 122.65625 170.3125 121.875 139.84375 122.65625 139.84375 c 0
 241.40625 139.84375 l 1025
122.65625 702.34375 m 1
 132.091796875 689.889648438 l 1
 210.15625 749.029296875 l 1
 210.15625 171.09375 l 1
 122.65625 171.09375 l 1
 122.65625 139.84375 l 1
 225.78125 139.84375 l 1
 328.90625 139.84375 l 1
 328.90625 155.46875 l 1
 328.90625 171.09375 l 1
 241.40625 171.09375 l 1
 241.40625 780.46875 l 1
 241.40625 811.908203125 l 1
 216.345703125 792.922851562 l 1
 113.220703125 714.797851562 l 1
 122.65625 702.34375 l 1
EndSplineSet
Validated: 11
EndChar

StartChar: m
Encoding: 109 109 46
Width: 600
VWidth: 0
Flags: HW
LayerCount: 2
Fore
SplineSet
19.53125 155.46875 m 1
 35.15625 155.46875 l 1
 35.15625 457.178710938 l 1
 210.15625 523.466796875 l 1
 210.15625 474.21875 l 1
 210.15625 155.46875 l 1
 241.40625 155.46875 l 1
 241.40625 457.178710938 l 1
 416.40625 523.466796875 l 1
 416.40625 155.46875 l 1
 432.03125 155.46875 l 1
 447.65625 155.46875 l 1
 447.65625 546.09375 l 1
 447.65625 568.720703125 l 1
 426.49609375 560.706054688 l 1
 241.40625 490.595703125 l 1
 241.40625 546.09375 l 1
 241.40625 568.720703125 l 1
 220.24609375 560.706054688 l 1
 35.15625 490.595703125 l 1
 35.15625 546.09375 l 2
 34.375 546.09375 3.90625 546.875 3.90625 546.09375 c 2
 3.90625 473.4375 l 1
 3.90625 155.46875 l 1
 19.53125 155.46875 l 1
EndSplineSet
EndChar

StartChar: period
Encoding: 46 46 47
Width: 600
VWidth: 0
Flags: HW
LayerCount: 2
Fore
SplineSet
35.15625 171.09375 m 1
 35.15625 217.96875 l 1
 107.03125 217.96875 l 1
 107.03125 171.09375 l 1
 35.15625 171.09375 l 1
19.53125 155.46875 m 1
 19.53125 139.84375 l 1
 122.65625 139.84375 l 1
 138.28125 139.84375 l 1
 138.28125 155.46875 l 1
 138.28125 233.59375 l 1
 138.28125 249.21875 l 1
 122.65625 249.21875 l 1
 19.53125 249.21875 l 1
 3.90625 249.21875 l 1
 3.90625 233.59375 l 1
 3.90625 155.46875 l 1
 19.53125 155.46875 l 1
EndSplineSet
Validated: 9
EndChar

StartChar: w
Encoding: 119 119 48
Width: 600
VWidth: 0
Flags: HW
LayerCount: 2
Fore
SplineSet
19.53125 546.09375 m 1
 4.423828125 542.10546875 l 1
 107.548828125 151.48046875 l 1
 122.65625 94.255859375 l 1
 137.763671875 151.48046875 l 1
 225.78125 484.880859375 l 1
 313.798828125 151.48046875 l 1
 328.90625 94.255859375 l 1
 344.013671875 151.48046875 l 1
 447.138671875 542.10546875 l 1
 432.03125 546.09375 l 1
 416.923828125 550.08203125 l 1
 328.90625 216.681640625 l 1
 240.888671875 550.08203125 l 1
 225.78125 607.306640625 l 1
 210.673828125 550.08203125 l 1
 122.65625 216.681640625 l 1
 34.638671875 550.08203125 l 1
 19.53125 546.09375 l 1
EndSplineSet
Validated: 9
EndChar

StartChar: asciicircum
Encoding: 94 94 49
Width: 600
VWidth: 0
Flags: HW
LayerCount: 2
Fore
SplineSet
122.65625 702.34375 m 1
 132.091796875 689.889648438 l 1
 225.78125 760.866210938 l 1
 319.470703125 689.889648438 l 1
 328.90625 702.34375 l 1
 338.341796875 714.797851562 l 1
 235.216796875 792.922851562 l 1
 225.78125 800.071289062 l 1
 216.345703125 792.922851562 l 1
 113.220703125 714.797851562 l 1
 122.65625 702.34375 l 1
EndSplineSet
Validated: 9
EndChar

StartChar: eight
Encoding: 56 56 50
Width: 600
VWidth: 0
Flags: HW
LayerCount: 2
Fore
SplineSet
96.78125 467.96875 m 1
 10.095703125 402.297851562 l 1
 3.90625 397.609375 l 1
 3.90625 389.84375 l 1
 3.90625 233.59375 l 1
 3.90625 225.828125 l 1
 10.095703125 221.139648438 l 1
 113.220703125 143.014648438 l 1
 117.40625 139.84375 l 1
 122.65625 139.84375 l 1
 328.90625 139.84375 l 1
 334.15625 139.84375 l 1
 338.341796875 143.014648438 l 1
 441.466796875 221.139648438 l 1
 447.65625 225.828125 l 1
 447.65625 233.59375 l 1
 447.65625 389.84375 l 1
 447.65625 397.609375 l 1
 441.466796875 402.297851562 l 1
 354.78125 467.96875 l 1
 441.466796875 533.639648438 l 1
 447.65625 538.328125 l 1
 447.65625 546.09375 l 1
 447.65625 702.34375 l 1
 447.65625 710.109375 l 1
 441.466796875 714.797851562 l 1
 338.341796875 792.922851562 l 1
 334.15625 796.09375 l 1
 328.90625 796.09375 l 1
 122.65625 796.09375 l 1
 117.40625 796.09375 l 1
 113.220703125 792.922851562 l 1
 10.095703125 714.797851562 l 1
 3.90625 710.109375 l 1
 3.90625 702.34375 l 1
 3.90625 546.09375 l 1
 3.90625 538.328125 l 1
 10.095703125 533.639648438 l 1
 96.78125 467.96875 l 1
323.65625 452.34375 m 1
 416.40625 382.078125 l 1
 416.40625 241.359375 l 1
 323.65625 171.09375 l 1
 127.90625 171.09375 l 1
 35.15625 241.359375 l 1
 35.15625 382.078125 l 1
 127.90625 452.34375 l 1
 323.65625 452.34375 l 1
127.90625 483.59375 m 1
 35.15625 553.859375 l 1
 35.15625 694.578125 l 1
 127.90625 764.84375 l 1
 323.65625 764.84375 l 1
 416.40625 694.578125 l 1
 416.40625 553.859375 l 1
 323.65625 483.59375 l 1
 127.90625 483.59375 l 1
EndSplineSet
Validated: 9
EndChar

StartChar: equal
Encoding: 61 61 51
Width: 600
VWidth: 0
Flags: HW
LayerCount: 2
Fore
SplineSet
19.53125 546.09375 m 1
 19.53125 530.46875 l 1
 432.03125 530.46875 l 1
 432.03125 546.09375 l 1
 432.03125 561.71875 l 1
 19.53125 561.71875 l 1
 19.53125 546.09375 l 1
19.53125 389.84375 m 1
 19.53125 374.21875 l 1
 432.03125 374.21875 l 1
 432.03125 389.84375 l 1
 432.03125 405.46875 l 1
 19.53125 405.46875 l 1
 19.53125 389.84375 l 1
19.53125 389.84375 m 1
 19.53125 374.21875 l 1
 432.03125 374.21875 l 1
 432.03125 389.84375 l 1
 432.03125 405.46875 l 1
 19.53125 405.46875 l 1
 19.53125 389.84375 l 1
EndSplineSet
Validated: 5
EndChar

StartChar: three
Encoding: 51 51 52
Width: 600
VWidth: 0
Flags: HW
LayerCount: 2
Fore
SplineSet
323.4375 483.59375 m 1
 122.65625 483.59375 l 2
 122.65625 482.8125 121.875 452.34375 122.65625 452.34375 c 2
 323.4375 452.34375 l 2
 324.21875 452.34375 323.4375 483.59375 323.4375 483.59375 c 1
19.53125 702.34375 m 1
 28.966796875 689.889648438 l 1
 127.90625 764.84375 l 1
 323.65625 764.84375 l 1
 416.40625 694.578125 l 1
 416.40625 553.859375 l 1
 323.65625 483.59375 l 1
 122.65625 483.59375 l 1
 122.65625 452.34375 l 1
 323.65625 452.34375 l 1
 416.40625 382.078125 l 1
 416.40625 241.359375 l 1
 323.65625 171.09375 l 1
 127.90625 171.09375 l 1
 28.966796875 246.047851562 l 1
 19.53125 233.59375 l 1
 10.095703125 221.139648438 l 1
 113.220703125 143.014648438 l 1
 117.40625 139.84375 l 1
 122.65625 139.84375 l 1
 328.90625 139.84375 l 1
 334.15625 139.84375 l 1
 338.341796875 143.014648438 l 1
 441.466796875 221.139648438 l 1
 447.65625 225.828125 l 1
 447.65625 233.59375 l 1
 447.65625 389.84375 l 1
 447.65625 397.609375 l 1
 441.466796875 402.297851562 l 1
 354.78125 467.96875 l 1
 441.466796875 533.639648438 l 1
 447.65625 538.328125 l 1
 447.65625 546.09375 l 1
 447.65625 702.34375 l 1
 447.65625 710.109375 l 1
 441.466796875 714.797851562 l 1
 338.341796875 792.922851562 l 1
 334.15625 796.09375 l 1
 328.90625 796.09375 l 1
 122.65625 796.09375 l 1
 117.40625 796.09375 l 1
 113.220703125 792.922851562 l 1
 10.095703125 714.797851562 l 1
 19.53125 702.34375 l 1
EndSplineSet
Validated: 5
EndChar

StartChar: e
Encoding: 101 101 53
Width: 600
VWidth: 0
Flags: HW
LayerCount: 2
Fore
SplineSet
35.15625 296.09375 m 1
 432.03125 296.09375 l 1
 447.65625 296.09375 l 1
 447.65625 311.71875 l 1
 447.65625 467.96875 l 1
 447.65625 475.734375 l 1
 441.466796875 480.422851562 l 1
 338.341796875 558.547851562 l 1
 334.15625 561.71875 l 1
 328.90625 561.71875 l 1
 122.65625 561.71875 l 1
 117.40625 561.71875 l 1
 113.220703125 558.547851562 l 1
 10.095703125 480.422851562 l 1
 3.90625 475.734375 l 1
 3.90625 467.96875 l 1
 3.90625 311.71875 l 1
 3.90625 233.59375 l 1
 3.90625 225.828125 l 1
 10.095703125 221.139648438 l 1
 113.220703125 143.014648438 l 1
 117.40625 139.84375 l 1
 122.65625 139.84375 l 1
 432.03125 139.84375 l 1
 432.03125 155.46875 l 1
 432.03125 171.09375 l 1
 127.90625 171.09375 l 1
 35.15625 241.359375 l 1
 35.15625 296.09375 l 1
35.15625 327.34375 m 1
 35.15625 460.203125 l 1
 127.90625 530.46875 l 1
 323.65625 530.46875 l 1
 416.40625 460.203125 l 1
 416.40625 327.34375 l 1
 35.15625 327.34375 l 1
EndSplineSet
Validated: 9
EndChar

StartChar: t
Encoding: 116 116 54
Width: 600
VWidth: 0
Flags: HW
LayerCount: 2
Fore
SplineSet
19.53125 546.09375 m 1
 19.53125 530.46875 l 1
 107.03125 530.46875 l 1
 107.03125 233.59375 l 1
 107.03125 225.828125 l 1
 113.220703125 221.139648438 l 1
 216.345703125 143.014648438 l 1
 220.53125 139.84375 l 1
 225.78125 139.84375 l 1
 328.90625 139.84375 l 1
 334.15625 139.84375 l 1
 338.341796875 143.014648438 l 1
 441.466796875 221.139648438 l 1
 432.03125 233.59375 l 1
 422.595703125 246.047851562 l 1
 323.65625 171.09375 l 1
 231.03125 171.09375 l 1
 138.28125 241.359375 l 1
 138.28125 530.46875 l 1
 328.90625 530.46875 l 2
 328.90625 531.25 329.6875 561.71875 328.90625 561.71875 c 2
 138.28125 561.71875 l 1
 138.28125 702.34375 l 2
 137.5 702.34375 107.03125 703.125 107.03125 702.34375 c 2
 107.03125 561.71875 l 1
 19.53125 561.71875 l 1
 19.53125 546.09375 l 1
EndSplineSet
EndChar

StartChar: c
Encoding: 99 99 55
Width: 600
VWidth: 0
Flags: HW
LayerCount: 2
Fore
SplineSet
432.03125 467.96875 m 1
 441.466796875 480.422851562 l 1
 338.341796875 558.547851562 l 1
 334.15625 561.71875 l 1
 328.90625 561.71875 l 1
 122.65625 561.71875 l 1
 117.40625 561.71875 l 1
 113.220703125 558.547851562 l 1
 10.095703125 480.422851562 l 1
 3.90625 475.734375 l 1
 3.90625 467.96875 l 1
 3.90625 233.59375 l 1
 3.90625 225.828125 l 1
 10.095703125 221.139648438 l 1
 113.220703125 143.014648438 l 1
 117.40625 139.84375 l 1
 122.65625 139.84375 l 1
 328.90625 139.84375 l 1
 334.15625 139.84375 l 1
 338.341796875 143.014648438 l 1
 441.466796875 221.139648438 l 1
 432.03125 233.59375 l 1
 422.595703125 246.047851562 l 1
 323.65625 171.09375 l 1
 127.90625 171.09375 l 1
 35.15625 241.359375 l 1
 35.15625 460.203125 l 1
 127.90625 530.46875 l 1
 323.65625 530.46875 l 1
 422.595703125 455.514648438 l 1
 432.03125 467.96875 l 1
EndSplineSet
Validated: 9
EndChar

StartChar: W
Encoding: 87 87 56
Width: 600
VWidth: 0
Flags: HW
LayerCount: 2
Fore
SplineSet
19.53125 780.46875 m 1
 4.1142578125 777.924804688 l 1
 107.239257812 152.924804688 l 1
 120.463867188 72.7802734375 l 1
 137.916015625 152.111328125 l 1
 225.78125 551.498046875 l 1
 313.646484375 152.111328125 l 1
 331.098632812 72.7802734375 l 1
 344.323242188 152.924804688 l 1
 447.448242188 777.924804688 l 1
 432.03125 780.46875 l 1
 416.614257812 783.012695312 l 1
 326.713867188 238.157226562 l 1
 241.041015625 627.576171875 l 1
 225.78125 696.939453125 l 1
 210.521484375 627.576171875 l 1
 124.848632812 238.157226562 l 1
 34.9482421875 783.012695312 l 1
 19.53125 780.46875 l 1
EndSplineSet
Validated: 9
EndChar

StartChar: l
Encoding: 108 108 57
Width: 600
VWidth: 0
Flags: HW
LayerCount: 2
Fore
SplineSet
210.15625 171.09375 m 0
 122.65625 171.09375 l 1
 122.65625 170.3125 121.875 139.84375 122.65625 139.84375 c 0
 241.40625 139.84375 l 1025
122.65625 780.46875 m 1
 122.65625 764.84375 l 1
 210.15625 764.84375 l 1
 210.15625 171.09375 l 1
 122.65625 171.09375 l 1
 122.65625 139.84375 l 1
 225.78125 139.84375 l 1
 328.90625 139.84375 l 1
 328.90625 155.46875 l 1
 328.90625 171.09375 l 1
 241.40625 171.09375 l 1
 241.40625 780.46875 l 1
 241.40625 796.09375 l 1
 225.78125 796.09375 l 1
 122.65625 796.09375 l 1
 122.65625 780.46875 l 1
EndSplineSet
Validated: 11
EndChar

StartChar: ampersand
Encoding: 38 38 58
Width: 600
VWidth: 0
Flags: HW
LayerCount: 2
Fore
SplineSet
374.880859375 196.760742188 m 1
 420.301757812 145.146484375 l 1
 432.03125 155.46875 l 1
 443.760742188 165.791015625 l 1
 392.720703125 223.791992188 l 1
 445.072265625 303.112304688 l 1
 432.03125 311.71875 l 1
 418.990234375 320.325195312 l 1
 371.325195312 248.10546875 l 1
 166.119140625 481.29296875 l 1
 338.341796875 611.764648438 l 1
 344.53125 616.453125 l 1
 344.53125 624.21875 l 1
 344.53125 702.34375 l 1
 344.53125 710.109375 l 1
 338.341796875 714.797851562 l 1
 235.216796875 792.922851562 l 1
 231.03125 796.09375 l 1
 225.78125 796.09375 l 1
 122.65625 796.09375 l 1
 117.40625 796.09375 l 1
 113.220703125 792.922851562 l 1
 10.095703125 714.797851562 l 1
 3.90625 710.109375 l 1
 3.90625 702.34375 l 1
 3.90625 624.21875 l 1
 3.90625 618.322265625 l 1
 7.8017578125 613.896484375 l 1
 120.443359375 485.89453125 l 1
 10.095703125 402.297851562 l 1
 3.90625 397.609375 l 1
 3.90625 389.84375 l 1
 3.90625 233.59375 l 1
 3.90625 225.828125 l 1
 10.095703125 221.139648438 l 1
 113.220703125 143.014648438 l 1
 117.40625 139.84375 l 1
 122.65625 139.84375 l 1
 328.90625 139.84375 l 1
 337.315429688 139.84375 l 1
 341.947265625 146.862304688 l 1
 374.880859375 196.760742188 l 1
141.143554688 462.37109375 m 1
 353.484375 221.07421875 l 1
 320.497070312 171.09375 l 1
 127.90625 171.09375 l 1
 35.15625 241.359375 l 1
 35.15625 382.078125 l 1
 141.143554688 462.37109375 l 1
145.418945312 504.81640625 m 1
 35.15625 630.115234375 l 1
 35.15625 694.578125 l 1
 127.90625 764.84375 l 1
 220.53125 764.84375 l 1
 313.28125 694.578125 l 1
 313.28125 631.984375 l 1
 145.418945312 504.81640625 l 1
EndSplineSet
Validated: 9
EndChar

StartChar: X
Encoding: 88 88 59
Width: 600
VWidth: 0
Flags: HW
LayerCount: 2
Fore
SplineSet
19.53125 155.46875 m 1
 32.572265625 146.862304688 l 1
 225.78125 439.603515625 l 1
 418.990234375 146.862304688 l 1
 432.03125 155.46875 l 1
 445.072265625 164.075195312 l 1
 244.502929688 467.96875 l 1
 307.198242188 562.9609375 l 1
 445.072265625 771.862304688 l 1
 418.990234375 789.076171875 l 1
 281.353515625 580.534179688 l 1
 240.297851562 518.329101562 l 1
 225.78125 496.333984375 l 1
 210.833984375 518.981445312 l 1
 170.208984375 580.53515625 l 1
 32.572265625 789.076171875 l 1
 6.490234375 771.862304688 l 1
 144.364257812 562.9609375 l 1
 207.059570312 467.96875 l 1
 6.490234375 164.075195312 l 1
 19.53125 155.46875 l 1
EndSplineSet
Validated: 9
EndChar

StartChar: N
Encoding: 78 78 60
Width: 600
VWidth: 0
Flags: HW
LayerCount: 2
Fore
SplineSet
19.53125 155.46875 m 1
 35.15625 155.46875 l 1
 35.15625 728.428710938 l 1
 418.990234375 146.862304688 l 1
 447.65625 103.428710938 l 1
 447.65625 155.46875 l 1
 447.65625 780.46875 l 1
 432.03125 780.46875 l 1
 416.40625 780.46875 l 1
 416.40625 207.508789062 l 1
 32.572265625 789.075195312 l 1
 3.90625 832.508789062 l 1
 3.90625 780.46875 l 1
 3.90625 155.46875 l 1
 19.53125 155.46875 l 1
EndSplineSet
Validated: 9
EndChar

StartChar: z
Encoding: 122 122 61
Width: 600
VWidth: 0
Flags: HW
LayerCount: 2
Fore
SplineSet
19.53125 546.09375 m 1
 19.53125 530.46875 l 1
 392.806640625 530.46875 l 1
 8.7880859375 166.814453125 l 1
 -19.693359375 139.84375 l 1
 19.53125 139.84375 l 1
 432.03125 139.84375 l 1
 432.03125 155.46875 l 1
 432.03125 171.09375 l 1
 58.755859375 171.09375 l 1
 442.774414062 534.748046875 l 1
 471.255859375 561.71875 l 1
 432.03125 561.71875 l 1
 19.53125 561.71875 l 1
 19.53125 546.09375 l 1
EndSplineSet
Validated: 9
EndChar

StartChar: hyphen
Encoding: 45 45 62
Width: 600
VWidth: 0
Flags: HW
LayerCount: 2
Fore
SplineSet
19.53125 467.96875 m 1
 19.53125 452.34375 l 1
 432.03125 452.34375 l 1
 432.03125 467.96875 l 1
 432.03125 483.59375 l 1
 19.53125 483.59375 l 1
 19.53125 467.96875 l 1
EndSplineSet
Validated: 9
EndChar

StartChar: q
Encoding: 113 113 63
Width: 600
VWidth: 0
Flags: HW
LayerCount: 2
Fore
SplineSet
416.40625 139.84375 m 1
 416.40625 -157.03125 l 1
 432.03125 -157.03125 l 1
 447.65625 -157.03125 l 1
 447.65625 154.6875 l 1
 447.65625 473.4375 l 1
 447.65625 546.09375 l 1
 416.40625 546.09375 l 5
 416.40625 490.595703125 l 1
 231.31640625 560.706054688 l 1
 228.641601562 561.71875 l 1
 225.78125 561.71875 l 1
 122.65625 561.71875 l 1
 117.40625 561.71875 l 1
 113.220703125 558.547851562 l 1
 10.095703125 480.422851562 l 1
 3.90625 475.734375 l 1
 3.90625 467.96875 l 1
 3.90625 233.59375 l 1
 3.90625 225.828125 l 1
 10.095703125 221.139648438 l 1
 113.220703125 143.014648438 l 1
 117.40625 139.84375 l 1
 122.65625 139.84375 l 1
 416.40625 139.84375 l 1
416.40625 171.09375 m 1
 127.90625 171.09375 l 1
 35.15625 241.359375 l 1
 35.15625 460.203125 l 1
 127.90625 530.46875 l 1
 222.920898438 530.46875 l 1
 416.40625 457.178710938 l 1
 416.40625 171.09375 l 1
EndSplineSet
EndChar

StartChar: O
Encoding: 79 79 64
Width: 600
VWidth: 0
Flags: HW
LayerCount: 2
Fore
SplineSet
127.90625 171.09375 m 1
 35.15625 241.359375 l 1
 35.15625 694.578125 l 1
 127.90625 764.84375 l 1
 323.65625 764.84375 l 1
 416.40625 694.578125 l 1
 416.40625 241.359375 l 1
 323.65625 171.09375 l 1
 127.90625 171.09375 l 1
122.65625 155.46875 m 1
 122.65625 139.84375 l 1
 328.90625 139.84375 l 1
 334.15625 139.84375 l 1
 338.341796875 143.014648438 l 1
 441.466796875 221.139648438 l 1
 447.65625 225.828125 l 1
 447.65625 233.59375 l 1
 447.65625 702.34375 l 1
 447.65625 710.109375 l 1
 441.466796875 714.797851562 l 1
 338.341796875 792.922851562 l 1
 334.15625 796.09375 l 1
 328.90625 796.09375 l 1
 122.65625 796.09375 l 1
 117.40625 796.09375 l 1
 113.220703125 792.922851562 l 1
 10.095703125 714.797851562 l 1
 3.90625 710.109375 l 1
 3.90625 702.34375 l 1
 3.90625 233.59375 l 1
 3.90625 225.828125 l 1
 10.095703125 221.139648438 l 1
 113.220703125 143.014648438 l 1
 122.65625 155.46875 l 1
EndSplineSet
Validated: 9
EndChar

StartChar: P
Encoding: 80 80 65
Width: 600
VWidth: 0
Flags: HW
LayerCount: 2
Fore
SplineSet
35.15625 452.34375 m 1
 328.90625 452.34375 l 1
 334.15625 452.34375 l 1
 338.341796875 455.514648438 l 1
 441.466796875 533.639648438 l 1
 447.65625 538.328125 l 1
 447.65625 546.09375 l 1
 447.65625 702.34375 l 1
 447.65625 710.109375 l 1
 441.466796875 714.797851562 l 1
 338.341796875 792.922851562 l 1
 334.15625 796.09375 l 1
 328.90625 796.09375 l 1
 19.53125 796.09375 l 1
 3.90625 796.09375 l 1
 3.90625 780.46875 l 1
 3.90625 467.96875 l 1
 3.90625 155.46875 l 1
 19.53125 155.46875 l 1
 35.15625 155.46875 l 1
 35.15625 452.34375 l 1
35.15625 483.59375 m 1
 35.15625 764.84375 l 1
 323.65625 764.84375 l 1
 416.40625 694.578125 l 1
 416.40625 553.859375 l 1
 323.65625 483.59375 l 1
 35.15625 483.59375 l 1
EndSplineSet
Validated: 9
EndChar

StartChar: p
Encoding: 112 112 66
Width: 600
VWidth: 0
Flags: HW
LayerCount: 2
Fore
SplineSet
35.15625 139.84375 m 1
 328.90625 139.84375 l 1
 334.15625 139.84375 l 1
 338.341796875 143.014648438 l 1
 441.466796875 221.139648438 l 1
 447.65625 225.828125 l 1
 447.65625 233.59375 l 1
 447.65625 467.96875 l 1
 447.65625 475.734375 l 1
 441.466796875 480.422851562 l 1
 338.341796875 558.547851562 l 1
 334.15625 561.71875 l 1
 328.90625 561.71875 l 1
 19.53125 561.71875 l 1
 3.90625 561.71875 l 1
 3.90625 546.09375 l 1
 3.90625 154.6875 l 1
 3.90625 -157.03125 l 1
 19.53125 -157.03125 l 1
 35.15625 -157.03125 l 1
 35.15625 139.84375 l 1
35.15625 171.09375 m 1
 35.15625 530.46875 l 1
 323.65625 530.46875 l 1
 416.40625 460.203125 l 1
 416.40625 241.359375 l 1
 323.65625 171.09375 l 1
 35.15625 171.09375 l 1
EndSplineSet
Validated: 9
EndChar

StartChar: d
Encoding: 100 100 67
Width: 600
VWidth: 0
Flags: HW
LayerCount: 2
Fore
SplineSet
416.40625 561.71875 m 1
 122.65625 561.71875 l 1
 117.40625 561.71875 l 1
 113.220703125 558.547851562 l 1
 10.095703125 480.422851562 l 1
 3.90625 475.734375 l 1
 3.90625 467.96875 l 1
 3.90625 233.59375 l 1
 3.90625 225.828125 l 1
 10.095703125 221.139648438 l 1
 113.220703125 143.014648438 l 1
 117.40625 139.84375 l 1
 122.65625 139.84375 l 1
 432.03125 139.84375 l 1
 447.65625 139.84375 l 1
 447.65625 155.46875 l 1
 447.65625 546.09375 l 1
 447.65625 780.46875 l 1
 432.03125 780.46875 l 1
 416.40625 780.46875 l 1
 416.40625 561.71875 l 1
416.40625 530.46875 m 1
 416.40625 171.09375 l 1
 127.90625 171.09375 l 1
 35.15625 241.359375 l 1
 35.15625 460.203125 l 1
 127.90625 530.46875 l 1
 416.40625 530.46875 l 1
EndSplineSet
Validated: 9
EndChar

StartChar: five
Encoding: 53 53 68
Width: 600
VWidth: 0
Flags: HW
LayerCount: 2
Fore
SplineSet
19.53125 233.59375 m 1
 10.095703125 221.139648438 l 1
 113.220703125 143.014648438 l 1
 117.40625 139.84375 l 1
 122.65625 139.84375 l 1
 328.90625 139.84375 l 1
 334.15625 139.84375 l 1
 338.341796875 143.014648438 l 1
 441.466796875 221.139648438 l 1
 447.65625 225.828125 l 1
 447.65625 233.59375 l 1
 447.65625 467.96875 l 1
 447.65625 475.734375 l 1
 441.466796875 480.422851562 l 1
 338.341796875 558.547851562 l 1
 334.15625 561.71875 l 1
 328.90625 561.71875 l 1
 35.15625 561.71875 l 1
 35.15625 764.84375 l 1
 432.03125 764.84375 l 1
 432.03125 780.46875 l 1
 432.03125 796.09375 l 1
 19.53125 796.09375 l 1
 3.90625 796.09375 l 1
 3.90625 780.46875 l 1
 3.90625 546.09375 l 1
 3.90625 530.46875 l 1
 19.53125 530.46875 l 1
 323.65625 530.46875 l 1
 416.40625 460.203125 l 1
 416.40625 241.359375 l 1
 323.65625 171.09375 l 1
 127.90625 171.09375 l 1
 28.966796875 246.047851562 l 1
 19.53125 233.59375 l 1
EndSplineSet
Validated: 9
EndChar

StartChar: a
Encoding: 97 97 69
Width: 600
VWidth: 0
Flags: HW
LayerCount: 2
Fore
SplineSet
416.40625 210.966796875 m 1
 416.40625 155.46875 l 1
 432.03125 155.46875 l 1
 447.65625 155.46875 l 1
 447.65625 228.125 l 1
 447.65625 546.09375 l 1
 447.65625 561.71875 l 1
 432.03125 561.71875 l 1
 225.78125 561.71875 l 1
 222.920898438 561.71875 l 1
 220.24609375 560.706054688 l 1
 13.99609375 482.581054688 l 1
 3.90625 478.758789062 l 1
 3.90625 467.96875 l 1
 3.90625 233.59375 l 1
 3.90625 225.828125 l 1
 10.095703125 221.139648438 l 1
 113.220703125 143.014648438 l 1
 117.40625 139.84375 l 1
 122.65625 139.84375 l 1
 225.78125 139.84375 l 1
 228.641601562 139.84375 l 1
 231.31640625 140.856445312 l 1
 416.40625 210.966796875 l 1
416.40625 244.383789062 m 1
 222.920898438 171.09375 l 1
 127.90625 171.09375 l 1
 35.15625 241.359375 l 1
 35.15625 457.178710938 l 1
 228.641601562 530.46875 l 1
 416.40625 530.46875 l 1
 416.40625 244.383789062 l 1
EndSplineSet
Validated: 9
EndChar

StartChar: n
Encoding: 110 110 70
Width: 600
VWidth: 0
Flags: HW
LayerCount: 2
Fore
SplineSet
35.15625 488.28125 m 0
 35.15625 546.09375 l 1
 3.90625 546.09375 l 1
 3.90625 447.907226562 l 1025
19.53125 155.46875 m 1
 35.15625 155.46875 l 1
 35.15625 455.798828125 l 1
 325.454101562 529.106445312 l 1
 416.40625 460.203125 l 1
 416.40625 155.46875 l 1
 432.03125 155.46875 l 1
 447.65625 155.46875 l 1
 447.65625 467.96875 l 1
 447.65625 475.734375 l 1
 441.466796875 480.422851562 l 1
 338.341796875 558.547851562 l 1
 332.358398438 563.081054688 l 1
 325.081054688 561.243164062 l 1
 35.15625 488.030273438 l 1
 35.15625 546.09375 l 2
 34.375 546.09375 3.90625 546.875 3.90625 546.09375 c 2
 3.90625 471.875 l 1
 3.90625 155.46875 l 1
 19.53125 155.46875 l 1
EndSplineSet
Validated: 11
EndChar

StartChar: seven
Encoding: 55 55 71
Width: 600
VWidth: 0
Flags: HW
LayerCount: 2
Fore
SplineSet
19.53125 702.34375 m 1
 35.15625 702.34375 l 1
 35.15625 764.84375 l 1
 406.862304688 764.84375 l 1
 108.653320312 162.400390625 l 1
 122.65625 155.46875 l 1
 136.659179688 148.537109375 l 1
 446.034179688 773.537109375 l 1
 457.200195312 796.09375 l 1
 432.03125 796.09375 l 1
 19.53125 796.09375 l 1
 3.90625 796.09375 l 1
 3.90625 780.46875 l 1
 3.90625 702.34375 l 1
 19.53125 702.34375 l 1
EndSplineSet
Validated: 9
EndChar

StartChar: u
Encoding: 117 117 72
Width: 600
VWidth: 0
Flags: HW
LayerCount: 2
Fore
SplineSet
19.53125 546.09375 m 1
 3.90625 546.09375 l 1
 3.90625 233.59375 l 1
 3.90625 225.828125 l 1
 10.095703125 221.139648438 l 1
 113.220703125 143.014648438 l 1
 117.40625 139.84375 l 1
 122.65625 139.84375 l 1
 328.90625 139.84375 l 1
 334.15625 139.84375 l 1
 338.341796875 143.014648438 l 1
 441.466796875 221.139648438 l 1
 447.65625 225.828125 l 1
 447.65625 233.59375 l 1
 447.65625 546.09375 l 1
 432.03125 546.09375 l 1
 416.40625 546.09375 l 1
 416.40625 241.359375 l 1
 323.65625 171.09375 l 1
 127.90625 171.09375 l 1
 35.15625 241.359375 l 1
 35.15625 546.09375 l 1
 19.53125 546.09375 l 1
EndSplineSet
Validated: 9
EndChar

StartChar: s
Encoding: 115 115 73
Width: 600
VWidth: 0
Flags: HW
LayerCount: 2
Fore
SplineSet
19.53125 233.59375 m 1
 10.095703125 221.139648438 l 1
 113.220703125 143.014648438 l 1
 117.40625 139.84375 l 1
 122.65625 139.84375 l 1
 328.90625 139.84375 l 1
 334.15625 139.84375 l 1
 338.341796875 143.014648438 l 1
 441.466796875 221.139648438 l 1
 447.65625 225.828125 l 1
 447.65625 233.59375 l 1
 447.65625 311.71875 l 1
 447.65625 324.662109375 l 1
 434.938476562 327.071289062 l 1
 35.15625 402.787109375 l 1
 35.15625 460.203125 l 1
 127.90625 530.46875 l 1
 323.65625 530.46875 l 1
 422.595703125 455.514648438 l 1
 432.03125 467.96875 l 1
 441.466796875 480.422851562 l 1
 338.341796875 558.547851562 l 1
 334.15625 561.71875 l 1
 328.90625 561.71875 l 1
 122.65625 561.71875 l 1
 117.40625 561.71875 l 1
 113.220703125 558.547851562 l 1
 10.095703125 480.422851562 l 1
 3.90625 475.734375 l 1
 3.90625 467.96875 l 1
 3.90625 389.84375 l 1
 3.90625 376.900390625 l 1
 16.6240234375 374.491210938 l 1
 416.40625 298.775390625 l 1
 416.40625 241.359375 l 1
 323.65625 171.09375 l 1
 127.90625 171.09375 l 1
 28.966796875 246.047851562 l 1
 19.53125 233.59375 l 1
EndSplineSet
Validated: 9
EndChar

StartChar: H
Encoding: 72 72 74
Width: 600
VWidth: 0
Flags: HW
LayerCount: 2
Fore
SplineSet
447.65625 452.34375 m 1
 447.65625 780.46875 l 1
 416.40625 780.46875 l 1
 416.40625 483.59375 l 1024
35.15625 484.375 m 0
 35.15625 780.46875 l 1
 3.90625 780.46875 l 1
 3.90625 452.34375 l 1025
416.40625 452.34375 m 1
 416.40625 155.46875 l 1
 432.03125 155.46875 l 1
 447.65625 155.46875 l 1
 447.65625 467.96875 l 1
 447.65625 780.46875 l 2
 446.875 780.46875 416.40625 781.25 416.40625 780.46875 c 2
 416.40625 483.59375 l 1
 35.15625 483.59375 l 1
 35.15625 780.46875 l 2
 34.375 780.46875 3.90625 781.25 3.90625 780.46875 c 2
 3.90625 467.96875 l 1
 3.90625 155.46875 l 1
 19.53125 155.46875 l 1
 35.15625 155.46875 l 1
 35.15625 452.34375 l 1
 416.40625 452.34375 l 1
EndSplineSet
Validated: 11
EndChar

StartChar: nine
Encoding: 57 57 75
Width: 600
VWidth: 0
Flags: HW
LayerCount: 2
Fore
SplineSet
416.40625 436.529296875 m 1
 416.40625 241.359375 l 1
 323.65625 171.09375 l 1
 127.90625 171.09375 l 1
 28.966796875 246.047851562 l 1
 19.53125 233.59375 l 1
 10.095703125 221.139648438 l 1
 113.220703125 143.014648438 l 1
 117.40625 139.84375 l 1
 122.65625 139.84375 l 1
 328.90625 139.84375 l 1
 334.15625 139.84375 l 1
 338.341796875 143.014648438 l 1
 441.466796875 221.139648438 l 1
 447.65625 225.828125 l 1
 447.65625 233.59375 l 1
 447.65625 455.46875 l 1
 447.65625 702.34375 l 1
 447.65625 710.109375 l 1
 441.466796875 714.797851562 l 1
 338.341796875 792.922851562 l 1
 334.15625 796.09375 l 1
 328.90625 796.09375 l 1
 122.65625 796.09375 l 1
 117.40625 796.09375 l 1
 113.220703125 792.922851562 l 1
 10.095703125 714.797851562 l 1
 3.90625 710.109375 l 1
 3.90625 702.34375 l 1
 3.90625 467.96875 l 1
 3.90625 460.203125 l 1
 10.095703125 455.514648438 l 1
 113.220703125 377.389648438 l 1
 117.40625 374.21875 l 1
 122.65625 374.21875 l 1
 328.90625 374.21875 l 1
 334.15625 374.21875 l 1
 338.341796875 377.389648438 l 1
 416.40625 436.529296875 l 1
416.40625 475.734375 m 1
 323.65625 405.46875 l 1
 127.90625 405.46875 l 1
 35.15625 475.734375 l 1
 35.15625 694.578125 l 1
 127.90625 764.84375 l 1
 323.65625 764.84375 l 1
 416.40625 694.578125 l 1
 416.40625 475.734375 l 1
EndSplineSet
Validated: 9
EndChar

StartChar: asterisk
Encoding: 42 42 76
Width: 600
VWidth: 0
Flags: HW
LayerCount: 2
Fore
SplineSet
255.46875 452.34375 m 0
 432.03125 452.34375 l 1
 432.03125 483.59375 l 1
 254.815429688 483.59375 l 1
 341.947265625 615.612304688 l 1
 315.865234375 632.825195312 l 1
 225.78125 496.333984375 l 1
 135.697265625 632.825195312 l 1
 109.615234375 615.612304688 l 1
 196.59375 483.827148438 l 1024
225.689453125 439.463867188 m 1
 225.689453125 439.463867188 l 1
 225.78125 439.603515625 l 1
 315.865234375 303.112304688 l 1
 341.947265625 320.325195312 l 1
 254.815429688 452.34375 l 1
 432.03125 452.34375 l 2
 432.03125 453.125 432.8125 483.59375 432.03125 483.59375 c 2
 254.815429688 483.59375 l 1
 341.947265625 615.612304688 l 2
 341.294921875 616.041992188 316.295898438 633.477539062 315.865234375 632.825195312 c 2
 225.78125 496.333984375 l 1
 135.697265625 632.825195312 l 2
 135.044921875 632.395507812 109.185546875 616.263671875 109.615234375 615.612304688 c 2
 196.747070312 483.59375 l 1
 19.53125 483.59375 l 1
 19.53125 452.34375 l 1
 196.747070312 452.34375 l 1
 196.59375 452.110351562 l 1
 109.615234375 320.325195312 l 2
 110.267578125 319.895507812 135.266601562 302.459960938 135.697265625 303.112304688 c 2
 225.689453125 439.463867188 l 1
EndSplineSet
Validated: 11
EndChar

StartChar: question
Encoding: 63 63 77
Width: 600
VWidth: 0
Flags: HW
LayerCount: 2
Fore
SplineSet
19.53125 702.34375 m 1
 28.966796875 689.889648438 l 1
 127.90625 764.84375 l 1
 323.65625 764.84375 l 1
 416.40625 694.578125 l 1
 416.40625 553.859375 l 1
 323.65625 483.59375 l 1
 225.78125 483.59375 l 1
 210.15625 483.59375 l 1
 210.15625 467.96875 l 1
 210.15625 311.71875 l 1
 225.78125 311.71875 l 1
 241.40625 311.71875 l 1
 241.40625 452.34375 l 1
 328.90625 452.34375 l 1
 334.15625 452.34375 l 1
 338.341796875 455.514648438 l 1
 441.466796875 533.639648438 l 1
 447.65625 538.328125 l 1
 447.65625 546.09375 l 1
 447.65625 702.34375 l 1
 447.65625 710.109375 l 1
 441.466796875 714.797851562 l 1
 338.341796875 792.922851562 l 1
 334.15625 796.09375 l 1
 328.90625 796.09375 l 1
 122.65625 796.09375 l 1
 117.40625 796.09375 l 1
 113.220703125 792.922851562 l 1
 10.095703125 714.797851562 l 1
 19.53125 702.34375 l 1
225.78125 155.46875 m 1025
225.78125 155.46875 m 1025
EndSplineSet
Validated: 9
EndChar

StartChar: C
Encoding: 67 67 78
Width: 600
VWidth: 0
Flags: HW
LayerCount: 2
Fore
SplineSet
432.03125 702.34375 m 1
 441.466796875 714.797851562 l 1
 338.341796875 792.922851562 l 1
 334.15625 796.09375 l 1
 328.90625 796.09375 l 1
 122.65625 796.09375 l 1
 117.40625 796.09375 l 1
 113.220703125 792.922851562 l 1
 10.095703125 714.797851562 l 1
 3.90625 710.109375 l 1
 3.90625 702.34375 l 1
 3.90625 233.59375 l 1
 3.90625 225.828125 l 1
 10.095703125 221.139648438 l 1
 113.220703125 143.014648438 l 1
 117.40625 139.84375 l 1
 122.65625 139.84375 l 1
 328.90625 139.84375 l 1
 334.15625 139.84375 l 1
 338.341796875 143.014648438 l 1
 441.466796875 221.139648438 l 1
 432.03125 233.59375 l 1
 422.595703125 246.047851562 l 1
 323.65625 171.09375 l 1
 127.90625 171.09375 l 1
 35.15625 241.359375 l 1
 35.15625 694.578125 l 1
 127.90625 764.84375 l 1
 323.65625 764.84375 l 1
 422.595703125 689.889648438 l 1
 432.03125 702.34375 l 1
EndSplineSet
Validated: 9
EndChar

StartChar: Q
Encoding: 81 81 79
Width: 600
VWidth: 0
Flags: HW
LayerCount: 2
Fore
SplineSet
113.220703125 143.014648438 m 1
 117.40625 139.84375 l 1
 122.65625 139.84375 l 1
 328.90625 139.84375 l 1
 334.15625 139.84375 l 1
 338.341796875 143.014648438 l 1
 441.466796875 221.139648438 l 1
 447.65625 225.828125 l 1
 447.65625 233.59375 l 1
 447.65625 702.34375 l 1
 447.65625 710.109375 l 1
 441.466796875 714.797851562 l 1
 338.341796875 792.922851562 l 1
 334.15625 796.09375 l 1
 328.90625 796.09375 l 1
 122.65625 796.09375 l 1
 117.40625 796.09375 l 1
 113.220703125 792.922851562 l 1
 10.095703125 714.797851562 l 1
 3.90625 710.109375 l 1
 3.90625 702.34375 l 1
 3.90625 233.59375 l 1
 3.90625 225.828125 l 1
 10.095703125 221.139648438 l 1
 113.220703125 143.014648438 l 1
127.90625 171.09375 m 1
 35.15625 241.359375 l 1
 35.15625 694.578125 l 1
 127.90625 764.84375 l 1
 323.65625 764.84375 l 1
 416.40625 694.578125 l 1
 416.40625 241.359375 l 1
 323.65625 171.09375 l 1
 127.90625 171.09375 l 1
225.78125 311.71875 m 1
 216.345703125 299.264648438 l 1
 422.595703125 143.014648438 l 1
 432.03125 155.46875 l 1
 441.466796875 167.922851562 l 1
 235.216796875 324.172851562 l 1
 225.78125 311.71875 l 1
225.78125 311.71875 m 1
 216.345703125 299.264648438 l 1
 422.595703125 143.014648438 l 1
 432.03125 155.46875 l 1
 441.466796875 167.922851562 l 1
 235.216796875 324.172851562 l 1
 225.78125 311.71875 l 1
EndSplineSet
Validated: 5
EndChar

StartChar: greater
Encoding: 62 62 80
Width: 600
VWidth: 0
Flags: HW
LayerCount: 2
Fore
SplineSet
19.53125 624.21875 m 1
 13.99609375 609.606445312 l 1
 387.920898438 467.96875 l 1
 13.99609375 326.331054688 l 1
 19.53125 311.71875 l 1
 25.06640625 297.106445312 l 1
 437.56640625 453.356445312 l 1
 476.141601562 467.96875 l 1
 437.56640625 482.581054688 l 1
 25.06640625 638.831054688 l 1
 19.53125 624.21875 l 1
EndSplineSet
Validated: 9
EndChar

StartChar: slash
Encoding: 47 47 81
Width: 600
VWidth: 0
Flags: HW
LayerCount: 2
Fore
SplineSet
19.53125 155.46875 m 1
 32.572265625 146.862304688 l 1
 445.072265625 771.862304688 l 1
 432.03125 780.46875 l 1
 418.990234375 789.075195312 l 1
 6.490234375 164.075195312 l 1
 19.53125 155.46875 l 1
EndSplineSet
Validated: 9
EndChar

StartChar: i
Encoding: 105 105 82
Width: 600
VWidth: 0
Flags: HW
LayerCount: 2
Fore
SplineSet
197 702 m 0
 197 718 210 731 226 731 c 0
 242 731 254 718 254 702 c 0
 254 686 242 674 226 674 c 0
 210 674 197 686 197 702 c 0
225.78125 702.34375 m 1025
122.65625 530.46875 m 5
 210.15625 530.46875 l 1
 210.15625 171.09375 l 1
 122.65625 171.09375 l 1
 122.65625 139.84375 l 1
 225.78125 139.84375 l 1
 328.90625 139.84375 l 1
 328.90625 155.46875 l 1
 328.90625 171.09375 l 1
 241.40625 171.09375 l 1
 241.40625 301.302083333 241.40625 431.510416667 241.40625 561.71875 c 1
 201.822916667 561.71875 162.239583333 561.71875 122.65625 561.71875 c 1
 122.65625 551.302083333 122.65625 540.885416667 122.65625 530.46875 c 5
EndSplineSet
EndChar

StartChar: four
Encoding: 52 52 83
Width: 600
VWidth: 0
Flags: HW
LayerCount: 2
Fore
SplineSet
328.90625 155.46875 m 1
 344.53125 155.46875 l 1
 344.53125 296.09375 l 1
 432.03125 296.09375 l 1
 432.03125 311.71875 l 1
 432.03125 327.34375 l 1
 344.53125 327.34375 l 1
 344.53125 780.46875 l 1
 344.53125 832.508789062 l 1
 315.865234375 789.075195312 l 1
 6.490234375 320.325195312 l 1
 -9.5029296875 296.09375 l 1
 19.53125 296.09375 l 1
 313.28125 296.09375 l 1
 313.28125 155.46875 l 1
 328.90625 155.46875 l 1
313.28125 327.34375 m 1
 48.5654296875 327.34375 l 1
 313.28125 728.428710938 l 1
 313.28125 327.34375 l 1
EndSplineSet
Validated: 9
EndChar

StartChar: D
Encoding: 68 68 84
Width: 600
VWidth: 0
Flags: HW
LayerCount: 2
Fore
SplineSet
35.15625 171.09375 m 1
 35.15625 764.84375 l 1
 323.65625 764.84375 l 1
 416.40625 694.578125 l 1
 416.40625 241.359375 l 1
 323.65625 171.09375 l 1
 35.15625 171.09375 l 1
19.53125 155.46875 m 1
 19.53125 139.84375 l 1
 328.90625 139.84375 l 1
 334.15625 139.84375 l 1
 338.341796875 143.014648438 l 1
 441.466796875 221.139648438 l 1
 447.65625 225.828125 l 1
 447.65625 233.59375 l 1
 447.65625 702.34375 l 1
 447.65625 710.109375 l 1
 441.466796875 714.797851562 l 1
 338.341796875 792.922851562 l 1
 334.15625 796.09375 l 1
 328.90625 796.09375 l 1
 19.53125 796.09375 l 1
 3.90625 796.09375 l 1
 3.90625 780.46875 l 1
 3.90625 155.46875 l 1
 19.53125 155.46875 l 1
EndSplineSet
Validated: 9
EndChar

StartChar: I
Encoding: 73 73 85
Width: 600
VWidth: 0
Flags: HW
LayerCount: 2
Fore
SplineSet
241.40625 796.09375 m 1
 122.65625 796.09375 l 1
 122.65625 764.84375 l 1
 210.15625 764.84375 l 1024
210.15625 139.84375 m 1
 328.90625 139.84375 l 1
 328.90625 140.625 329.6875 171.09375 328.90625 171.09375 c 0
 242.1875 171.09375 l 1024
122.65625 155.46875 m 1
 122.65625 139.84375 l 1
 225.78125 139.84375 l 1
 328.90625 139.84375 l 1
 328.90625 171.09375 l 1
 241.40625 171.09375 l 1
 241.40625 764.84375 l 1
 328.90625 764.84375 l 1
 328.90625 780.46875 l 1
 328.90625 796.09375 l 1
 225.78125 796.09375 l 1
 122.65625 796.09375 l 2
 122.65625 795.3125 121.875 764.84375 122.65625 764.84375 c 2
 210.15625 764.84375 l 1
 210.15625 171.09375 l 1
 122.65625 171.09375 l 1
 122.65625 155.46875 l 1
EndSplineSet
Validated: 11
EndChar

StartChar: j
Encoding: 106 106 86
Width: 600
VWidth: 0
Flags: HW
LayerCount: 2
Fore
SplineSet
404 702 m 4
 404 718 416 731 432 731 c 4
 448 731 460 718 460 702 c 4
 460 686 448 674 432 674 c 4
 416 674 404 686 404 702 c 4
19.53125 -78.90625 m 1
 10.095703125 -91.3603515625 l 1
 113.220703125 -169.485351562 l 1
 117.40625 -172.65625 l 1
 122.65625 -172.65625 l 1
 328.90625 -172.65625 l 1
 334.15625 -172.65625 l 1
 338.341796875 -169.485351562 l 1
 441.466796875 -91.3603515625 l 1
 447.65625 -86.671875 l 1
 447.65625 -78.90625 l 1
 447.65625 546.09375 l 1
 432.03125 546.09375 l 1
 416.40625 546.09375 l 1
 416.40625 -71.140625 l 1
 323.65625 -141.40625 l 1
 127.90625 -141.40625 l 1
 28.966796875 -66.4521484375 l 1
 19.53125 -78.90625 l 1
432.03125 702.34375 m 1025
432.03125 702.34375 m 1025
EndSplineSet
Validated: 9
EndChar

StartChar: F
Encoding: 70 70 87
Width: 600
VWidth: 0
Flags: HW
LayerCount: 2
Fore
SplineSet
35.15625 452.34375 m 1
 328.90625 452.34375 l 2
 328.90625 453.125 329.6875 483.59375 328.90625 483.59375 c 2
 35.15625 483.59375 l 2
 34.375 483.59375 35.15625 452.34375 35.15625 452.34375 c 1
3.90625 452.34375 m 1
 3.90625 155.46875 l 1
 35.15625 155.46875 l 1
 35.15625 452.34375 l 1
 328.90625 452.34375 l 1
 328.90625 483.59375 l 1
 35.15625 483.59375 l 1
 35.15625 764.84375 l 1
 432.03125 764.84375 l 1
 432.03125 796.09375 l 1
 3.90625 796.09375 l 1
 3.90625 452.34375 l 1
EndSplineSet
Validated: 5
EndChar

StartChar: g
Encoding: 103 103 88
Width: 600
VWidth: 0
Flags: HW
LayerCount: 2
Fore
SplineSet
447.65625 445.341796875 m 1
 447.65625 546.09375 l 1
 446.875 546.09375 416.40625 546.875 416.40625 546.09375 c 0
 416.40625 490.625 l 1024
416.40625 139.84375 m 1
 416.40625 -71.140625 l 1
 323.65625 -141.40625 l 1
 228.641601562 -141.40625 l 1
 25.06640625 -64.2939453125 l 1
 19.53125 -78.90625 l 1
 13.99609375 -93.5185546875 l 1
 220.24609375 -171.643554688 l 1
 222.920898438 -172.65625 l 1
 225.78125 -172.65625 l 1
 328.90625 -172.65625 l 1
 334.15625 -172.65625 l 1
 338.341796875 -169.485351562 l 1
 441.466796875 -91.3603515625 l 1
 447.65625 -86.671875 l 1
 447.65625 -78.90625 l 1
 447.65625 155.46875 l 1
 447.65625 473.4375 l 1
 447.65625 546.09375 l 1
 416.40625 546.09375 l 1
 416.40625 490.595703125 l 1
 231.31640625 560.706054688 l 1
 228.641601562 561.71875 l 1
 225.78125 561.71875 l 1
 122.65625 561.71875 l 1
 117.40625 561.71875 l 1
 113.220703125 558.547851562 l 1
 10.095703125 480.422851562 l 1
 3.90625 475.734375 l 1
 3.90625 467.96875 l 1
 3.90625 233.59375 l 1
 3.90625 225.828125 l 1
 10.095703125 221.139648438 l 1
 113.220703125 143.014648438 l 1
 117.40625 139.84375 l 1
 122.65625 139.84375 l 1
 416.40625 139.84375 l 1
416.40625 171.09375 m 1
 127.90625 171.09375 l 1
 35.15625 241.359375 l 1
 35.15625 460.203125 l 1
 127.90625 530.46875 l 1
 222.920898438 530.46875 l 1
 416.40625 457.178710938 l 1
 416.40625 171.09375 l 1
EndSplineSet
Validated: 11
EndChar

StartChar: braceleft
Encoding: 123 123 89
Width: 600
VWidth: 0
Flags: HW
LayerCount: 2
Fore
SplineSet
432.03125 780.46875 m 1
 422.595703125 792.922851562 l 1
 319.470703125 714.797851562 l 1
 313.28125 710.109375 l 1
 313.28125 702.34375 l 1
 313.28125 553.859375 l 1
 216.345703125 480.422851562 l 1
 199.90625 467.96875 l 1
 216.345703125 455.514648438 l 1
 313.28125 382.078125 l 1
 313.28125 233.59375 l 1
 313.28125 225.828125 l 1
 319.470703125 221.139648438 l 1
 422.595703125 143.014648438 l 1
 432.03125 155.46875 l 1
 441.466796875 167.922851562 l 1
 344.53125 241.359375 l 1
 344.53125 389.84375 l 1
 344.53125 397.609375 l 1
 338.341796875 402.297851562 l 1
 251.65625 467.96875 l 1
 338.341796875 533.639648438 l 1
 344.53125 538.328125 l 1
 344.53125 546.09375 l 1
 344.53125 694.578125 l 1
 441.466796875 768.014648438 l 1
 432.03125 780.46875 l 1
EndSplineSet
Validated: 9
EndChar

StartChar: dollar
Encoding: 36 36 90
Width: 600
VWidth: 0
Flags: HW
LayerCount: 2
Fore
SplineSet
19.53125 311.71875 m 1
 10.095703125 299.264648438 l 1
 113.220703125 221.139648438 l 1
 117.40625 217.96875 l 1
 122.65625 217.96875 l 1
 328.90625 217.96875 l 1
 334.15625 217.96875 l 1
 338.341796875 221.139648438 l 1
 441.466796875 299.264648438 l 1
 447.65625 303.953125 l 1
 447.65625 311.71875 l 1
 447.65625 389.84375 l 1
 447.65625 397.609375 l 1
 441.466796875 402.297851562 l 1
 338.341796875 480.422851562 l 1
 334.15625 483.59375 l 1
 328.90625 483.59375 l 1
 127.90625 483.59375 l 1
 35.15625 553.859375 l 1
 35.15625 616.453125 l 1
 127.90625 686.71875 l 1
 323.65625 686.71875 l 1
 422.595703125 611.764648438 l 1
 432.03125 624.21875 l 1
 441.466796875 636.672851562 l 1
 338.341796875 714.797851562 l 1
 334.15625 717.96875 l 1
 328.90625 717.96875 l 1
 122.65625 717.96875 l 1
 117.40625 717.96875 l 1
 113.220703125 714.797851562 l 1
 10.095703125 636.672851562 l 1
 3.90625 631.984375 l 1
 3.90625 624.21875 l 1
 3.90625 546.09375 l 1
 3.90625 538.328125 l 1
 10.095703125 533.639648438 l 1
 113.220703125 455.514648438 l 1
 117.40625 452.34375 l 1
 122.65625 452.34375 l 1
 323.65625 452.34375 l 1
 416.40625 382.078125 l 1
 416.40625 319.484375 l 1
 323.65625 249.21875 l 1
 127.90625 249.21875 l 1
 28.966796875 324.172851562 l 1
 19.53125 311.71875 l 1
225.78125 780.46875 m 1
 210.15625 780.46875 l 1
 210.15625 155.46875 l 1
 225.78125 155.46875 l 1
 241.40625 155.46875 l 1
 241.40625 780.46875 l 1
 225.78125 780.46875 l 1
225.78125 780.46875 m 1
 210.15625 780.46875 l 1
 210.15625 155.46875 l 1
 225.78125 155.46875 l 1
 241.40625 155.46875 l 1
 241.40625 780.46875 l 1
 225.78125 780.46875 l 1
EndSplineSet
Validated: 5
EndChar

StartChar: K
Encoding: 75 75 91
Width: 600
VWidth: 0
Flags: HW
LayerCount: 2
Fore
SplineSet
244.997070312 544.278320312 m 0
 443.760742188 770.146484375 l 1
 420.301757812 790.791015625 l 1
 206.932617188 548.327148438 l 1025
3.90625 317.615234375 m 1
 3.90625 155.46875 l 1
 4.6875 155.46875 35.15625 154.6875 35.15625 155.46875 c 0
 35.15625 305.46875 l 1024
19.53125 780.46875 m 1
 3.90625 780.46875 l 1
 3.90625 329.6875 l 1
 3.90625 155.46875 l 1
 35.15625 155.46875 l 1
 35.15625 305.822265625 l 1
 42.619140625 314.302734375 l 1
 222.54296875 518.762695312 l 1
 418.213867188 148.172851562 l 1
 432.03125 155.46875 l 1
 445.848632812 162.764648438 l 1
 244.629882812 543.860351562 l 1
 443.760742188 770.146484375 l 2
 443.174804688 770.662109375 420.817382812 791.377929688 420.301757812 790.791015625 c 2
 210.1796875 552.015625 l 1
 35.15625 353.125976562 l 1
 35.15625 780.46875 l 1
 19.53125 780.46875 l 1
EndSplineSet
Validated: 11
EndChar

StartChar: L
Encoding: 76 76 92
Width: 600
VWidth: 0
Flags: HW
LayerCount: 2
Fore
SplineSet
19.53125 780.46875 m 1
 3.90625 780.46875 l 1
 3.90625 155.46875 l 1
 3.90625 139.84375 l 1
 19.53125 139.84375 l 1
 432.03125 139.84375 l 1
 432.03125 155.46875 l 1
 432.03125 171.09375 l 1
 35.15625 171.09375 l 1
 35.15625 780.46875 l 1
 19.53125 780.46875 l 1
EndSplineSet
Validated: 9
EndChar

StartChar: plus
Encoding: 43 43 93
Width: 600
VWidth: 0
Flags: HW
LayerCount: 2
Fore
SplineSet
241.40625 452.34375 m 0
 432.03125 452.34375 l 1
 432.03125 483.59375 l 1
 241.40625 483.59375 l 1
 241.40625 624.21875 l 1
 210.15625 624.21875 l 1
 210.15625 484.375 l 1024
19.53125 467.96875 m 1
 19.53125 452.34375 l 1
 210.15625 452.34375 l 1
 210.15625 311.71875 l 1
 225.78125 311.71875 l 1
 241.40625 311.71875 l 1
 241.40625 452.34375 l 1
 432.03125 452.34375 l 2
 432.03125 453.125 432.8125 483.59375 432.03125 483.59375 c 2
 241.40625 483.59375 l 1
 241.40625 624.21875 l 2
 240.625 624.21875 210.15625 625 210.15625 624.21875 c 2
 210.15625 483.59375 l 1
 19.53125 483.59375 l 1
 19.53125 467.96875 l 1
EndSplineSet
Validated: 11
EndChar

